<?xml version="1.0" encoding="UTF-8"?>
<svg width="17px" height="11px" viewBox="0 0 17 11" version="1.1" xmlns="http://www.w3.org/2000/svg" xmlns:xlink="http://www.w3.org/1999/xlink">
    <!-- Generator: Sketch 56.2 (81672) - https://sketch.com -->
    <title>arrow-btn</title>
    <desc>Created with Sketch.</desc>
    <g id="pages" stroke="none" stroke-width="1" fill="none" fill-rule="evenodd">
        <g id="aventin-main" transform="translate(-353.000000, -579.000000)" fill="#FFFFFF" fill-rule="nonzero">
            <g id="main">
                <g id="slider" transform="translate(0.000000, 80.000000)">
                    <g id="btn" transform="translate(180.000000, 474.000000)">
                        <path d="M188.989739,29.9744297 L184.165761,25.2176665 C183.871438,24.9274445 183.394105,24.9274445 183.099782,25.2176665 C182.805399,25.507948 182.805399,25.9785108 183.099782,26.2687923 L186.637024,29.7567483 L173.753747,29.7567483 C173.337498,29.7567483 173,30.0895434 173,30.5 C173,30.9103823 173.337498,31.2432368 173.753747,31.2432368 L186.637024,31.2432368 L183.099903,34.7311929 C182.805519,35.0214744 182.805519,35.4920372 183.099903,35.7823186 C183.247034,35.9273404 183.439993,36 183.632892,36 C183.825791,36 184.01869,35.9273404 184.165881,35.7823186 L188.989739,31.0255554 C189.284122,30.735274 189.284122,30.2647112 188.989739,29.9744297 Z" id="arrow-btn"></path>
                    </g>
                </g>
            </g>
        </g>
    </g>
</svg>