<?xml version="1.0" encoding="UTF-8"?>
<svg width="119px" height="26px" viewBox="0 0 119 26" version="1.1" xmlns="http://www.w3.org/2000/svg" xmlns:xlink="http://www.w3.org/1999/xlink">
    <!-- Generator: Sketch 56.2 (81672) - https://sketch.com -->
    <title>Aventin_logo-light</title>
    <desc>Created with Sketch.</desc>
    <g id="pages" stroke="none" stroke-width="1" fill="none" fill-rule="evenodd">
        <g id="aventin-main" transform="translate(-80.000000, -4149.000000)" fill-rule="nonzero">
            <g id="footer" transform="translate(0.000000, 4099.000000)">
                <g id="Aventin_logo-light" transform="translate(80.000000, 50.000000)">
                    <g id="Group" transform="translate(28.888889, 2.888889)" fill="#FFFFFF">
                        <path d="M0.144444444,1.01111111 C2.6,1.01111111 4.62222222,1.44444444 6.21111111,2.16666667 C8.23333333,3.17777778 9.24444444,4.91111111 9.24444444,7.07777778 C9.24444444,8.08888889 8.81111111,9.1 7.94444444,9.96666667 C9.24444444,10.9777778 9.96666667,12.5666667 9.96666667,14.7333333 C9.96666667,16.7555556 9.24444444,18.3444444 7.8,19.5 C6.5,20.3666667 4.76666667,20.9444444 2.6,20.9444444 L0,20.9444444 L0,1.01111111 L0.144444444,1.01111111 Z M2.74444444,3.61111111 L2.74444444,18.2 C4.04444444,18.2 5.2,17.9111111 6.06666667,17.4777778 C7.07777778,16.9 7.51111111,15.8888889 7.51111111,14.5888889 C7.51111111,12.7111111 6.35555556,11.2666667 4.18888889,10.2555556 C5.92222222,9.38888889 6.78888889,8.37777778 6.78888889,7.07777778 C6.78888889,6.06666667 6.35555556,5.2 5.48888889,4.62222222 C4.76666667,4.04444444 3.9,3.75555556 2.74444444,3.61111111 Z" id="Shape"></path>
                        <path d="M14.7333333,12.1333333 C15.0222222,14.0111111 16.0333333,15.7444444 17.4777778,17.0444444 C19.0666667,18.3444444 20.8,18.9222222 22.6777778,18.9222222 L22.6777778,21.5222222 C19.7888889,21.5222222 17.1888889,20.5111111 15.1666667,18.3444444 C13.1444444,16.3222222 11.9888889,13.7222222 11.9888889,10.8333333 C11.9888889,7.94444444 13,5.34444444 15.0222222,3.32222222 C17.0444444,1.3 19.6444444,0.144444444 22.5333333,0.144444444 L22.5333333,2.74444444 C20.5111111,2.74444444 18.7777778,3.32222222 17.3333333,4.62222222 C15.7444444,5.92222222 14.8777778,7.51111111 14.5888889,9.53333333 L22.6777778,9.53333333 L22.6777778,12.1333333 L14.7333333,12.1333333 L14.7333333,12.1333333 Z" id="Path"></path>
                        <polygon id="Path" points="26 1.01111111 28.6 1.01111111 28.6 9.82222222 35.9666667 9.82222222 35.9666667 1.01111111 38.5666667 1.01111111 38.5666667 9.82222222 42.4666667 9.82222222 42.4666667 12.4222222 38.5666667 12.4222222 38.5666667 20.9444444 35.9666667 20.9444444 35.9666667 12.4222222 28.6 12.4222222 28.6 20.9444444 26 20.9444444"></polygon>
                        <path d="M48.9666667,20.8 L46.3666667,20.8 L46.3666667,2.88888889 C44.7777778,3.17777778 43.3333333,3.9 42.0333333,5.2 L41.1666667,2.6 C43.1888889,1.01111111 45.5,0.288888889 47.8111111,0.288888889 C50.4111111,0.288888889 52.5777778,1.01111111 54.4555556,2.6 L53.4444444,5.2 C52,4.04444444 50.5555556,3.17777778 49.1111111,2.88888889 L49.1111111,20.8 L48.9666667,20.8 Z" id="Path"></path>
                        <path d="M59.2222222,1.01111111 L59.2222222,16.4666667 C61.8222222,15.0222222 63.7,12.7111111 65.1444444,9.82222222 C66.4444444,7.07777778 67.0222222,4.18888889 67.0222222,1.01111111 L69.6222222,1.01111111 L69.6222222,20.8 L67.0222222,20.8 L67.0222222,11.7 C64.7111111,15.8888889 61.2444444,18.9222222 56.6222222,20.8 L56.6222222,1.01111111 L59.2222222,1.01111111 Z" id="Path"></path>
                        <polygon id="Path" points="73.0888889 1.01111111 75.6888889 1.01111111 75.6888889 9.82222222 83.0555556 9.82222222 83.0555556 1.01111111 85.6555556 1.01111111 85.6555556 9.82222222 89.5555556 9.82222222 89.5555556 12.4222222 85.6555556 12.4222222 85.6555556 20.9444444 83.0555556 20.9444444 83.0555556 12.4222222 75.6888889 12.4222222 75.6888889 20.9444444 73.0888889 20.9444444"></polygon>
                    </g>
                    <g id="Group" fill="#FFFFFF">
                        <path d="M20.6555556,15.6 L20.6555556,8.66666667 C18.6333333,10.6888889 16.9,13 15.6,15.6 L20.6555556,15.6 Z" id="Path"></path>
                        <path d="M26.1444444,0 C4.33333333,4.33333333 0,25.1333333 0,25.1333333 L26.1444444,25.1333333 L26.1444444,0 Z M23.1111111,23.2555556 L20.5111111,23.2555556 L20.5111111,18.0555556 L14.4444444,18.0555556 C13.7222222,19.7888889 13.2888889,21.5222222 13.1444444,23.2555556 L10.6888889,23.2555556 C11.1222222,19.3555556 12.5666667,15.4555556 14.7333333,11.9888889 C16.9,8.52222222 19.7888889,5.63333333 23.1111111,3.46666667 L23.1111111,23.2555556 Z" id="Shape"></path>
                    </g>
                    <polygon id="Path" fill="#008BCB" points="0 12.1333333 0 19.5 6.35555556 15.8888889 12.7111111 12.1333333 6.35555556 8.52222222 0 4.76666667"></polygon>
                </g>
            </g>
        </g>
    </g>
</svg>