<?xml version="1.0" encoding="UTF-8"?>
<svg width="42px" height="40px" viewBox="0 0 42 40" version="1.1" xmlns="http://www.w3.org/2000/svg" xmlns:xlink="http://www.w3.org/1999/xlink">
    <!-- Generator: Sketch 56.2 (81672) - https://sketch.com -->
    <title>Aventin_map</title>
    <desc>Created with Sketch.</desc>
    <g id="pages" stroke="none" stroke-width="1" fill="none" fill-rule="evenodd">
        <g id="aventin-contacts" transform="translate(-899.000000, -590.000000)" fill-rule="nonzero">
            <g id="Aventin_map" transform="translate(899.000000, 590.000000)">
                <g id="Group" fill="#004A99">
                    <path d="M32.6408779,24.6153846 L32.6408779,13.6752137 C29.4452675,16.8660969 26.7061728,20.5128205 24.6518519,24.6153846 L32.6408779,24.6153846 Z" id="Path"></path>
                    <path d="M41.3146776,0 C6.84773663,6.83760684 0,39.6581197 0,39.6581197 L41.3146776,39.6581197 L41.3146776,0 Z M36.521262,36.6951567 L32.41262,36.6951567 L32.41262,28.4900285 L22.8257888,28.4900285 C21.6844993,31.2250712 20.9997257,33.960114 20.7714678,36.6951567 L16.8910837,36.6951567 C17.5758573,30.5413105 19.8584362,24.3874644 23.2823045,18.9173789 C26.7061728,13.4472934 31.2713306,8.88888889 36.521262,5.47008547 L36.521262,36.6951567 Z" id="Shape"></path>
                </g>
                <polygon id="Path" fill="#008BCB" points="0 18.8 0 30.4 10 24.7137255 20 18.8 10 13.1137255 0 7.2"></polygon>
            </g>
        </g>
    </g>
</svg>