<?xml version="1.0" encoding="UTF-8"?>
<svg width="20px" height="20px" viewBox="0 0 20 20" version="1.1" xmlns="http://www.w3.org/2000/svg" xmlns:xlink="http://www.w3.org/1999/xlink">
    <!-- Generator: Sketch 56.2 (81672) - https://sketch.com -->
    <title>close</title>
    <desc>Created with Sketch.</desc>
    <g id="pages" stroke="none" stroke-width="1" fill="none" fill-rule="evenodd">
        <g id="aventin-menu" transform="translate(-40.000000, -40.000000)" fill="#FFFFFF" fill-rule="nonzero">
            <g id="close" transform="translate(40.000000, 40.000000)">
                <path d="M19.7322987,0.236630975 C19.4273077,-0.0788769916 18.9328348,-0.0788769916 18.6278437,0.236630975 L0.856423588,18.6208196 C0.551432553,18.9363276 0.551432553,19.4478513 0.856423588,19.7633593 C1.00890022,19.9211718 1.20880397,20 1.40866995,20 C1.60853593,20 1.80840192,19.9211328 1.96091631,19.7633202 L19.7322987,1.37913153 C20.037252,1.06366263 20.037252,0.552138941 19.7322987,0.236630975 Z" id="Path"></path>
                <path d="M19.7322936,18.6208196 L1.96084307,0.236630975 C1.65588928,-0.0788769916 1.16137777,-0.0788769916 0.856423979,0.236630975 C0.551432423,0.552099879 0.551432423,1.06362357 0.856423979,1.37913153 L18.6278745,19.7633593 C18.7803514,19.9211328 18.9802555,20 19.1801218,20 C19.3799881,20 19.5798922,19.9211328 19.7323313,19.7633983 C20.0372474,19.4478513 20.0372474,18.9363276 19.7322936,18.6208196 Z" id="Path"></path>
            </g>
        </g>
    </g>
</svg>