<?xml version="1.0" encoding="UTF-8"?>
<svg width="70px" height="70px" viewBox="0 0 70 70" version="1.1" xmlns="http://www.w3.org/2000/svg" xmlns:xlink="http://www.w3.org/1999/xlink">
    <!-- Generator: Sketch 56.2 (81672) - https://sketch.com -->
    <title>company</title>
    <desc>Created with Sketch.</desc>
    <g id="pages" stroke="none" stroke-width="1" fill="none" fill-rule="evenodd">
        <g id="aventin-career" transform="translate(-180.000000, -394.000000)">
            <g id="company" transform="translate(180.000000, 335.000000)">
                <g transform="translate(0.000000, 59.000000)">
                    <g id="group" transform="translate(10.000000, 10.000000)" fill="#2D42AB" fill-rule="nonzero">
                        <path d="M50,25.8064516 L50,19.3355437 C50,17.5411101 48.8450574,15.9888483 47.1266224,15.4733966 L41.9354839,13.9160156 L41.9354839,12.6909809 C43.3959961,11.6695281 44.3548387,9.97826361 44.3548387,8.06530363 L44.3548387,5.64516129 C44.3548387,2.53236835 41.8224704,0 38.7096774,0 C35.5968845,0 33.0645161,2.53236835 33.0645161,5.64516129 L33.0645161,8.06451613 C33.0645161,9.97826361 34.0233588,11.6695281 35.483871,12.6901934 L35.483871,13.915228 L30.9089907,15.2879284 C29.1921308,13.7525989 27.0047096,12.9032258 24.6822234,12.9032258 C22.3691879,12.9032258 20.2530399,13.75063 18.6176915,15.1469569 L14.516129,13.9160156 L14.516129,12.6909809 C15.9766412,11.6695281 16.9354839,9.97826361 16.9354839,8.06530363 L16.9354839,5.64516129 C16.9354839,2.53236835 14.4031155,0 11.2903226,0 C8.17752964,0 5.64516129,2.53236835 5.64516129,5.64516129 L5.64516129,8.06451613 C5.64516129,9.97826361 6.60400393,11.6695281 8.06451613,12.6901934 L8.06451613,13.915228 L2.87337762,15.472609 C1.15494264,15.9888483 0,17.5411101 0,19.3355437 L0,25.8064516 L1.61290323,25.8064516 L1.61290323,19.3355437 C1.61290323,18.2589623 2.30555383,17.3272902 3.33724486,17.0185705 L8.52995847,15.460402 C8.99933851,16.0699659 9.90738407,16.9354839 11.2903226,16.9354839 C12.6732611,16.9354839 13.5813067,16.0699659 14.0506867,15.460402 L17.3580046,16.4523217 C16.3082,17.77265 15.6088552,19.3796466 15.3966104,21.1378528 C14.3668882,20.0435515 12.9087387,19.3548387 11.2903226,19.3548387 C8.17752964,19.3548387 5.64516129,21.8872071 5.64516129,25 L5.64516129,27.4193548 C5.64516129,29.3331023 6.60400393,31.0243668 8.06451613,32.0450322 L8.06451613,33.2700667 L2.87337762,34.8274477 C1.15494264,35.343687 0,36.8959488 0,38.6903825 L0,45.9677419 L9.67741935,45.9677419 C10.1215978,45.9677419 10.483871,46.3300151 10.483871,46.7741935 L10.483871,50 L39.516129,50 L39.516129,46.7741935 C39.516129,46.3300151 39.8784022,45.9677419 40.3225806,45.9677419 L50,45.9677419 L50,38.6903825 C50,36.8959488 48.8450574,35.343687 47.1266224,34.8282353 L41.9354839,33.2708543 L41.9354839,32.0458197 C43.3959961,31.0243668 44.3548387,29.3331023 44.3548387,27.4201423 L44.3548387,25.0007875 C44.3548387,21.8879946 41.8224704,19.3556262 38.7096774,19.3556262 C37.1306389,19.3556262 35.7032037,20.0088993 34.6774194,21.0571289 L34.6774194,20.2928113 C34.6774194,18.6999905 33.8119014,17.266255 32.4612525,16.5082378 L35.9493133,15.4611895 C36.4186933,16.0699659 37.3267389,16.9354839 38.7096774,16.9354839 C40.0926159,16.9354839 41.0006615,16.0699659 41.4700415,15.460402 L46.6635427,17.0185705 C47.6944462,17.3272902 48.3870968,18.2589623 48.3870968,19.3355437 L48.3870968,25.8064516 L50,25.8064516 Z M11.2903226,1.61290323 C13.5135774,1.61290323 15.3225806,3.42190645 15.3225806,5.64516129 L11.624244,5.64516129 C11.1119424,5.64516129 10.6094853,5.43724798 10.2476058,5.0749748 L9.67741935,4.50478831 L9.10723286,5.0749748 C8.74535343,5.43724798 8.24289627,5.64516129 7.73059476,5.64516129 L7.25806452,5.64516129 C7.25806452,3.42190645 9.06706774,1.61290323 11.2903226,1.61290323 Z M7.25806452,8.06451613 L7.25806452,7.25806452 L7.73059476,7.25806452 C8.43308972,7.25806452 9.10408266,7.05645161 9.67741935,6.68000252 C10.250756,7.05645161 10.921749,7.25806452 11.624244,7.25806452 L15.3225806,7.25806452 L15.3225806,8.06451613 C15.3225806,10.287771 13.5135774,12.0967742 11.2903226,12.0967742 C9.06706774,12.0967742 7.25806452,10.287771 7.25806452,8.06451613 Z M11.2903226,15.3225806 C10.433074,15.3225806 9.87745716,14.6023658 9.67741935,14.2944336 L9.67741935,13.4726248 C10.1885395,13.6250157 10.7299804,13.7096774 11.2903226,13.7096774 C11.8506647,13.7096774 12.3921056,13.6250157 12.9032258,13.4718372 L12.9032258,14.2936461 C12.703188,14.6031533 12.1475712,15.3225806 11.2903226,15.3225806 Z M33.4578976,29.477224 C33.868605,30.5203346 34.5774004,31.4122354 35.483871,32.0458197 L35.483871,33.2708543 L30.2935201,34.8282353 C30.1226216,34.8790323 29.9564485,34.9451865 29.7942131,35.0184286 L29.0322581,34.8428049 L29.0322581,33.253922 C29.894232,32.5612714 30.5734942,31.6516507 30.9905021,30.608934 C31.9194178,30.5274225 32.7904486,30.1320722 33.4578976,29.477224 L33.4578976,29.477224 Z M25,34.6774194 C25.8556735,34.6774194 26.6719696,34.506521 27.4193548,34.2025264 L27.4193548,35.0806452 L25,36.8951613 L22.5806452,35.0806452 L22.5806452,34.2025264 C23.3280304,34.506521 24.1443265,34.6774194 25,34.6774194 L25,34.6774194 Z M21.5903005,36.3541141 L23.5564202,37.8291961 L21.5339907,39.0428113 L21.0224767,36.4856351 L21.5903005,36.3541141 Z M24.1088867,42.7419355 L25.8911133,42.7419355 L26.5183972,48.3870968 L23.4816028,48.3870968 L24.1088867,42.7419355 Z M26.0312973,41.1290323 L23.9679152,41.1290323 L23.5048356,39.7401871 L25,38.843561 L26.4943769,39.7401871 L26.0312973,41.1290323 Z M26.4435798,37.8291961 L28.4096995,36.3541141 L28.9775233,36.4848476 L28.4660093,39.0420237 L26.4435798,37.8291961 Z M32.4356572,28.2403761 C32.1564706,28.5467333 31.801679,28.7613407 31.4169607,28.8920741 C31.4394058,28.6727413 31.4516129,28.4506521 31.4516129,28.2258065 L31.4516129,24.3668095 C32.3194934,24.6960055 32.9652848,25.4595357 33.0523091,26.3719128 C33.1184633,27.0661385 32.8999181,27.7288621 32.4356572,28.2403761 L32.4356572,28.2403761 Z M29.8387097,28.2258065 C29.8387097,30.894421 27.6686145,33.0645161 25,33.0645161 C22.3313855,33.0645161 20.1612903,30.894421 20.1612903,28.2258065 L20.1612903,24.1935484 L22.8992093,24.1935484 C24.656628,24.1935484 26.3667937,23.7548829 27.8958228,22.9169292 L28.5337387,24.1935484 L29.8387097,24.1935484 L29.8387097,28.2258065 Z M18.5830393,28.8920741 C18.198321,28.7613407 17.8435294,28.5467333 17.5643428,28.2403761 C17.1000819,27.7296497 16.8815367,27.0661385 16.9476909,26.3727004 C17.0347152,25.4603232 17.6805066,24.6960055 18.5483871,24.367597 L18.5483871,28.2258065 C18.5483871,28.4506521 18.5605942,28.6727413 18.5830393,28.8920741 Z M19.0094979,30.608934 C19.4257182,31.6516507 20.1049804,32.5612714 20.9677419,33.253922 L20.9677419,34.8428049 L20.2057869,35.0184286 C20.042764,34.9451865 19.8773784,34.8798198 19.7072675,34.8282353 L14.516129,33.2708543 L14.516129,32.0458197 C15.421812,31.4122354 16.131395,30.5203346 16.5421024,29.477224 C17.2095514,30.1320722 18.0805822,30.5274225 19.0094979,30.608934 Z M11.2903226,20.9677419 C13.5135774,20.9677419 15.3225806,22.7767452 15.3225806,25 L14.8500504,25 C14.3377489,25 13.8352917,24.7920867 13.4734123,24.4298135 L12.9032258,23.859627 L12.3330393,24.4298135 C11.9711599,24.7920867 11.4687027,25 10.9564012,25 L7.25806452,25 C7.25806452,22.7767452 9.06706774,20.9677419 11.2903226,20.9677419 Z M7.25806452,27.4193548 L7.25806452,26.6129032 L10.9564012,26.6129032 C11.6588962,26.6129032 12.3298891,26.4112903 12.9032258,26.0348412 C13.4765625,26.4112903 14.1475554,26.6129032 14.8500504,26.6129032 L15.3225806,26.6129032 L15.3225806,27.4193548 C15.3225806,29.6426097 13.5135774,31.4516129 11.2903226,31.4516129 C9.06706774,31.4516129 7.25806452,29.6426097 7.25806452,27.4193548 Z M11.2903226,33.0645161 C11.8506647,33.0645161 12.3921056,32.9798544 12.9032258,32.8266759 L12.9032258,33.6484848 C12.703188,33.957992 12.1475712,34.6774194 11.2903226,34.6774194 C10.433074,34.6774194 9.87745716,33.9572045 9.67741935,33.6492723 L9.67741935,32.8274635 C10.1885395,32.9798544 10.7299804,33.0645161 11.2903226,33.0645161 L11.2903226,33.0645161 Z M9.67741935,44.3548387 L6.4516129,44.3548387 L6.4516129,38.7096774 L4.83870968,38.7096774 L4.83870968,44.3548387 L1.61290323,44.3548387 L1.61290323,38.6903825 C1.61290323,37.613801 2.30555383,36.6821289 3.33724486,36.3734092 L8.52995847,34.8152407 C8.99933851,35.4248046 9.90738407,36.2903226 11.2903226,36.2903226 C12.6732611,36.2903226 13.5813067,35.4248046 14.0506867,34.8152407 L17.108745,35.7331306 L14.859501,36.2517327 C12.2830298,36.8467269 10.483871,39.1089655 10.483871,41.7523784 L10.483871,42.7419355 L12.0967742,42.7419355 L12.0967742,41.7523784 C12.0967742,39.8638326 13.3824502,38.2485666 15.2225617,37.8232894 L19.4501323,36.8475145 L20.4007056,41.60235 L22.0880324,40.5903478 L22.5652879,42.0225082 L21.8588552,48.3870968 L17.7419355,48.3870968 L17.7419355,41.9354839 L16.1290323,41.9354839 L16.1290323,48.3870968 L12.0967742,48.3870968 L12.0967742,46.7741935 C12.0967742,45.4404769 11.011136,44.3548387 9.67741935,44.3548387 L9.67741935,44.3548387 Z M46.6627551,36.3734092 C47.6944462,36.6821289 48.3870968,37.613801 48.3870968,38.6903825 L48.3870968,44.3548387 L45.1612903,44.3548387 L45.1612903,38.7096774 L43.5483871,38.7096774 L43.5483871,44.3548387 L40.3225806,44.3548387 C38.988864,44.3548387 37.9032258,45.4404769 37.9032258,46.7741935 L37.9032258,48.3870968 L33.8709677,48.3870968 L33.8709677,41.9354839 L32.2580645,41.9354839 L32.2580645,48.3870968 L28.1411448,48.3870968 L27.4339245,42.0225082 L27.91118,40.5903478 L29.5985069,41.60235 L30.5490801,36.8475145 L34.7774383,37.8232894 C36.6175498,38.2485666 37.9032258,39.8638326 37.9032258,41.7523784 L37.9032258,42.7419355 L39.516129,42.7419355 L39.516129,41.7523784 C39.516129,39.1089655 37.7169702,36.8467269 35.140499,36.2517327 L32.891255,35.7331306 L35.9493133,34.8152407 C36.4186933,35.4248046 37.3267389,36.2903226 38.7096774,36.2903226 C40.0926159,36.2903226 41.0006615,35.4248046 41.4700415,34.8152407 L46.6627551,36.3734092 Z M40.3225806,33.6492723 C40.1225428,33.957992 39.566926,34.6774194 38.7096774,34.6774194 C37.8508537,34.6774194 37.2944494,33.9548418 37.0967742,33.6492723 L37.0967742,32.8266759 C37.6078944,32.9798544 38.1493353,33.0645161 38.7096774,33.0645161 C39.2700196,33.0645161 39.8114605,32.9798544 40.3225806,32.8266759 L40.3225806,33.6492723 Z M38.7096774,31.4516129 C36.4864226,31.4516129 34.6774194,29.6426097 34.6774194,27.4193548 L34.6774194,26.6129032 L35.1499496,26.6129032 C35.8524446,26.6129032 36.5234375,26.4112903 37.0967742,26.0348412 C37.6701109,26.4112903 38.3411038,26.6129032 39.0435988,26.6129032 L42.7419355,26.6129032 L42.7419355,27.4193548 C42.7419355,29.6426097 40.9329323,31.4516129 38.7096774,31.4516129 Z M38.7096774,20.9677419 C40.9329323,20.9677419 42.7419355,22.7767452 42.7419355,25 L39.0435988,25 C38.5312973,25 38.0288401,24.7920867 37.6669607,24.4298135 L37.0967742,23.859627 L36.5265877,24.4298135 C36.1647083,24.7920867 35.6622511,25 35.1499496,25 L34.6774194,25 C34.6774194,22.7767452 36.4864226,20.9677419 38.7096774,20.9677419 Z M33.0645161,23.4556137 C32.3509955,22.915354 31.4646075,22.5806452 30.5065524,22.5806452 L29.5307774,22.5806452 L28.5388578,20.5968056 L27.7788716,21.1032006 C26.3282037,22.0703125 24.6412708,22.5806452 22.8992093,22.5806452 L19.4934476,22.5806452 C18.5353925,22.5806452 17.6490045,22.915354 16.9354839,23.4556137 L16.9354839,22.2628685 C16.9354839,17.9919828 20.4113376,14.516129 24.6822234,14.516129 C26.7515121,14.516129 28.6975492,15.3217931 30.160424,16.7846679 L31.0160976,17.6403415 L31.1968403,17.7009829 C32.3135868,18.0734942 33.0645161,19.1146359 33.0645161,20.2920237 L33.0645161,23.4556137 Z M38.7096774,1.61290323 C40.9329323,1.61290323 42.7419355,3.42190645 42.7419355,5.64516129 L42.2694052,5.64516129 C41.7571037,5.64516129 41.2546466,5.43724798 40.8927671,5.0749748 L40.3225806,4.50478831 L39.7523942,5.0749748 C39.3905147,5.43724798 38.8880576,5.64516129 38.375756,5.64516129 L34.6774194,5.64516129 C34.6774194,3.42190645 36.4864226,1.61290323 38.7096774,1.61290323 Z M34.6774194,8.06451613 L34.6774194,7.25806452 L38.375756,7.25806452 C39.078251,7.25806452 39.749244,7.05645161 40.3225806,6.68000252 C40.8959173,7.05645161 41.5669103,7.25806452 42.2694052,7.25806452 L42.7419355,7.25806452 L42.7419355,8.06451613 C42.7419355,10.287771 40.9329323,12.0967742 38.7096774,12.0967742 C36.4864226,12.0967742 34.6774194,10.287771 34.6774194,8.06451613 Z M38.7096774,15.3225806 C37.8508537,15.3225806 37.2944494,14.6000031 37.0967742,14.2944336 L37.0967742,13.4718372 C37.6078944,13.6250157 38.1493353,13.7096774 38.7096774,13.7096774 C39.2700196,13.7096774 39.8114605,13.6250157 40.3225806,13.4718372 L40.3225806,14.2936461 C40.1225428,14.6031533 39.566926,15.3225806 38.7096774,15.3225806 Z" id="Shape"></path>
                        <polygon id="Path" points="18.5483871 0 20.1612903 0 20.1612903 1.61290323 18.5483871 1.61290323"></polygon>
                        <polygon id="Path" points="18.5483871 3.22580645 20.1612903 3.22580645 20.1612903 12.0967742 18.5483871 12.0967742"></polygon>
                        <polygon id="Path" points="29.8387097 0 31.4516129 0 31.4516129 1.61290323 29.8387097 1.61290323"></polygon>
                        <polygon id="Path" points="29.8387097 3.22580645 31.4516129 3.22580645 31.4516129 12.0967742 29.8387097 12.0967742"></polygon>
                        <polygon id="Path" points="21.7741935 3.22580645 23.3870968 3.22580645 23.3870968 8.87096774 21.7741935 8.87096774"></polygon>
                        <polygon id="Path" points="21.7741935 10.483871 23.3870968 10.483871 23.3870968 12.0967742 21.7741935 12.0967742"></polygon>
                        <polygon id="Path" points="26.6129032 3.22580645 28.2258065 3.22580645 28.2258065 8.87096774 26.6129032 8.87096774"></polygon>
                        <polygon id="Path" points="26.6129032 10.483871 28.2258065 10.483871 28.2258065 12.0967742 26.6129032 12.0967742"></polygon>
                    </g>
                    <rect id="Rectangle" fill="#CA1836" x="50" y="0" width="20" height="1" rx="0.5"></rect>
                    <rect id="Rectangle" fill="#CA1836" transform="translate(0.500000, 60.000000) rotate(90.000000) translate(-0.500000, -60.000000) " x="-9.5" y="59.5" width="20" height="1" rx="0.5"></rect>
                    <rect id="Rectangle" fill="#CA1836" transform="translate(10.500000, 69.500000) rotate(90.000000) translate(-10.500000, -69.500000) " x="10" y="59.5" width="1" height="20" rx="0.5"></rect>
                    <rect id="Rectangle" fill="#CA1836" x="69" y="0" width="1" height="20" rx="0.5"></rect>
                </g>
            </g>
        </g>
    </g>
</svg>