<?xml version="1.0" encoding="UTF-8"?>
<svg width="70px" height="70px" viewBox="0 0 70 70" version="1.1" xmlns="http://www.w3.org/2000/svg" xmlns:xlink="http://www.w3.org/1999/xlink">
    <!-- Generator: Sketch 56.2 (81672) - https://sketch.com -->
    <title>connection</title>
    <desc>Created with Sketch.</desc>
    <g id="pages" stroke="none" stroke-width="1" fill="none" fill-rule="evenodd">
        <g id="aventin-career" transform="translate(-573.000000, -803.000000)">
            <g id="values" transform="translate(180.000000, 524.000000)">
                <g id="6" transform="translate(393.000000, 279.000000)">
                    <g id="connection">
                        <g transform="translate(10.000000, 10.000000)" fill="#2D42AB" fill-rule="nonzero" id="Shape">
                            <path d="M38.6890852,26.6310811 L33.2911642,19.7595634 C35.2079002,17.7944906 36.3653846,15.2130977 36.5576923,12.4747401 L44.9161123,12.4747401 L44.9161123,13.389501 C42.981289,13.7871102 41.5918919,15.4890852 41.5897089,17.4643451 C41.5902287,19.7607069 43.452183,21.6219335 45.7485447,21.6215177 C48.0449064,21.6211019 49.9061331,19.7590437 49.9057173,17.4626819 C49.9053015,15.4871102 48.5149688,13.7846154 46.5793139,13.389501 L46.5793139,11.6431393 C46.5793139,11.1838877 46.2069647,10.8115385 45.7477131,10.8115385 L36.5576923,10.8115385 C36.3951143,8.50748441 35.5464657,6.3047817 34.1211019,4.48721414 L35.281185,3.32713098 L45.0691268,3.32713098 C45.5283784,4.62619543 46.9538462,5.30696466 48.2528067,4.84760915 C49.5518711,4.38835759 50.2326403,2.96288981 49.7732848,1.66392931 C49.3139293,0.364968815 47.8886694,-0.315904366 46.5897089,0.143347193 C45.87921,0.394490644 45.3203742,0.953430353 45.0692308,1.66382536 L34.9370062,1.66382536 C34.7164241,1.66382536 34.5049896,1.75155925 34.3490644,1.90748441 L33.0060291,3.25051975 C28.3846154,-1.2002079 21.0301455,-1.06185031 16.5793139,3.55956341 C14.6876299,5.52380457 13.5471933,8.09095634 13.3577963,10.8114345 L6.37234927,10.8114345 L3.6537422,4.69677755 C4.86902287,4.05717256 5.33575884,2.55363825 4.6962578,1.33835759 C4.05675676,0.123076923 2.5531185,-0.343555094 1.33783784,0.295945946 C0.122661123,0.935446985 -0.344074844,2.43898129 0.295426195,3.65426195 C0.631496881,4.29293139 1.22858628,4.754158 1.93149688,4.91787942 L5.07079002,11.9814969 C5.20446985,12.2816008 5.50239085,12.4748441 5.83087318,12.4746362 L13.3576923,12.4746362 C13.5491684,15.1814969 14.6843035,17.735343 16.5651767,19.6912682 L9.54480249,26.7116424 C5.00540541,26.0314969 0.774116424,29.1599792 0.093970894,33.6993763 C-0.586174636,38.2387734 2.54230769,42.4700624 7.08170478,43.1502079 C7.21871102,43.17079 7.35623701,43.1878378 7.49407484,43.2014553 L7.49407484,47.4018711 C7.49407484,47.8611227 7.86642412,48.2334719 8.32567568,48.2334719 L15.9630977,48.2334719 C16.4223493,49.5325364 17.847817,50.2133056 19.1467775,49.7539501 C20.445738,49.2945946 21.1266112,47.8692308 20.6672557,46.5702703 C20.2079002,45.2713098 18.7825364,44.5904366 17.4835759,45.0497921 C16.7730769,45.3009356 16.2142412,45.8598753 15.9630977,46.5702703 L9.15727651,46.5702703 L9.15727651,43.2014553 C13.7246362,42.7461538 17.0582121,38.6744283 16.6029106,34.1069647 C16.2948025,31.0163202 14.2889813,28.3553015 11.4025988,27.2081081 L17.8059252,20.8047817 C21.9759875,24.0881497 27.8456341,24.1117464 32.0420998,20.8621622 L36.6558212,26.7349272 C30.2852391,27.6235967 25.8412682,33.508316 26.7299376,39.8787942 C27.6186071,46.2493763 33.5033264,50.6933472 39.8738046,49.8046778 C46.2443867,48.9160083 50.6883576,43.031289 49.7996881,36.6608108 C49.0192308,31.0651767 44.3351351,26.8367983 38.6890852,26.6310811 Z M48.2425156,17.4643451 C48.2425156,18.8422037 47.1255717,19.9591476 45.7477131,19.9591476 C44.3698545,19.9591476 43.2529106,18.8422037 43.2529106,17.4643451 C43.2529106,16.0864865 44.3698545,14.9695426 45.7477131,14.9695426 C47.1255717,14.9695426 48.2425156,16.0864865 48.2425156,17.4643451 Z M47.4109148,1.66392931 C47.8701663,1.66392931 48.2425156,2.03627859 48.2425156,2.49553015 C48.2425156,2.9547817 47.8701663,3.32713098 47.4109148,3.32713098 C46.9516632,3.32713098 46.5793139,2.9547817 46.5793139,2.49553015 C46.5793139,2.03627859 46.9516632,1.66392931 47.4109148,1.66392931 Z M2.50446985,3.32713098 C2.0452183,3.32713098 1.67286902,2.9547817 1.67286902,2.49553015 C1.67286902,2.03627859 2.0452183,1.66392931 2.50446985,1.66392931 C2.96372141,1.66392931 3.33607069,2.03627859 3.33607069,2.49553015 C3.33607069,2.9547817 2.96372141,3.32713098 2.50446985,3.32713098 Z M18.3048857,46.5703742 C18.7641372,46.5703742 19.1364865,46.9427235 19.1364865,47.4019751 C19.1364865,47.8612266 18.7641372,48.2335759 18.3048857,48.2335759 C17.8456341,48.2335759 17.4732848,47.8612266 17.4732848,47.4019751 C17.4732848,46.9427235 17.8456341,46.5703742 18.3048857,46.5703742 Z M11.652079,40.6809771 C9.5968815,41.881185 7.05446985,41.881185 4.99927235,40.6809771 L4.99927235,39.0859667 C4.99927235,37.2488565 6.48856549,35.7595634 8.32567568,35.7595634 C10.1627859,35.7595634 11.652079,37.2488565 11.652079,39.0859667 L11.652079,40.6809771 Z M6.66247401,32.4331601 C6.66247401,31.514553 7.40706861,30.7699584 8.32567568,30.7699584 C9.24428274,30.7699584 9.98887734,31.514553 9.98887734,32.4331601 C9.98887734,33.3517672 9.24428274,34.0963617 8.32567568,34.0963617 C7.40706861,34.0963617 6.66247401,33.3516632 6.66247401,32.4331601 Z M13.3152807,30.5129938 C14.3903326,31.7320166 14.9820166,33.3024948 14.9784981,34.9279626 C14.9781705,36.5439709 14.3865904,38.1039501 13.3152807,39.3138254 L13.3152807,39.0859667 C13.3142412,37.2678794 12.3243243,35.5941788 10.7314969,34.7175676 C12,33.3886694 11.9509356,31.2830561 10.6220374,30.014553 C9.29313929,28.7461538 7.18752599,28.7951143 5.91902287,30.1240125 C4.69209979,31.4093555 4.69209979,33.4321206 5.91902287,34.7174636 C4.32650728,35.5942827 3.33700624,37.2678794 3.33607069,39.0858628 L3.33607069,39.3138254 C0.905821206,36.5580042 1.16964657,32.3539501 3.92525988,29.9237006 C6.68097713,27.4934511 10.8850312,27.7572765 13.3152807,30.5129938 Z M30.7788981,19.7296258 C27.3072765,22.25 22.6081081,22.25 19.1364865,19.7296258 L19.1364865,17.7138254 C19.1364865,16.1982328 20.3651767,14.9695426 21.8807692,14.9695426 L23.7269231,14.9695426 L22.5202703,17.9865904 C22.3966736,18.2956341 22.4693347,18.6487526 22.7048857,18.8838877 L24.3680873,20.5470894 C24.6928274,20.8717256 25.2192308,20.8717256 25.5439709,20.5470894 L27.2071726,18.8838877 C27.4427235,18.6486486 27.5153846,18.2956341 27.3917879,17.9865904 L26.1859667,14.9695426 L28.0346154,14.9695426 C29.5502079,14.9695426 30.7788981,16.1982328 30.7788981,17.7138254 L30.7788981,19.7296258 L30.7788981,19.7296258 Z M25.0767152,6.22525988 C25.0455301,6.27723493 25.0201663,6.33232848 25.0010395,6.38981289 C24.5802495,7.65135135 22.30842,8.12952183 20.8456341,8.26839917 C21.068711,5.48149688 22.3801455,4.15862786 24.9577963,4.15862786 C27.3178794,4.15862786 28.6168399,5.27463617 28.9885655,7.6031185 L26.2176715,5.93991684 C25.8237006,5.7037422 25.3128898,5.83149688 25.0767152,6.22525988 Z M26.1044699,7.81278586 L29.0766112,9.59656965 C28.7431393,11.6323285 26.2341996,13.306341 24.9576923,13.306341 C23.1029106,12.9904366 21.5599792,11.704262 20.9152807,9.93669439 C22.3389813,9.81943867 24.9094595,9.38783784 26.1044699,7.81278586 Z M25.6445946,18.0955301 L24.9576923,18.783264 L24.27079,18.0955301 L24.9576923,16.3766112 L25.6445946,18.0955301 Z M28.5859667,13.3445946 C29.883264,12.3237006 30.6814969,10.7962578 30.7788981,9.1483368 C30.7788981,3.6497921 27.6129938,2.49553015 24.9576923,2.49553015 C22.3023909,2.49553015 19.1364865,3.6497921 19.1364865,9.1483368 C19.2331601,10.7971933 20.0314969,12.3256757 21.3294179,13.3470894 C19.125052,13.618711 17.4700624,15.4927235 17.4732848,17.7138254 L17.4732848,18.2194387 C13.8278586,14.0859667 14.2234927,7.77983368 18.3570686,4.13440748 C22.4906445,0.488981289 28.7966736,0.884615385 32.4420998,5.01808732 C35.7685031,8.78991684 35.7685031,14.4475052 32.4420998,18.2194387 L32.4420998,17.7137214 C32.4465696,15.4917879 30.7912682,13.6162162 28.5859667,13.3445946 Z M44.0845114,46.3408524 C40.6128898,48.8612266 35.9137214,48.8612266 32.4420998,46.3408524 L32.4420998,44.325052 C32.4420998,42.8094595 33.67079,41.5807692 35.1863825,41.5807692 L37.0325364,41.5807692 L35.8258836,44.597817 C35.7022869,44.9068607 35.774948,45.2598753 36.010499,45.4951143 L37.6737006,47.158316 C37.9984407,47.4829522 38.5248441,47.4829522 38.8495842,47.158316 L40.5127859,45.4951143 C40.7483368,45.2598753 40.8209979,44.9068607 40.6974012,44.597817 L39.49158,41.5807692 L41.3402287,41.5807692 C42.8558212,41.5807692 44.0845114,42.8094595 44.0845114,44.325052 L44.0845114,46.3408524 L44.0845114,46.3408524 Z M39.4100832,34.4240125 L39.4100832,34.4231809 L42.3822245,36.2069647 C42.0487526,38.2435551 39.5398129,39.9175676 38.2633056,39.9175676 C36.4085239,39.6016632 34.8655925,38.3154886 34.220894,36.547921 C35.6445946,36.4306653 38.2150728,35.9989605 39.4100832,34.4240125 Z M34.1510395,34.8797297 L34.1510395,34.8797297 C34.3739085,32.0930353 35.685343,30.7699584 38.2633056,30.7699584 C40.6233888,30.7699584 41.9223493,31.8859667 42.2940748,34.2144491 L39.5231809,32.5512474 C39.1293139,32.3149688 38.6185031,32.4427235 38.3822245,32.8365904 C38.3510395,32.8885655 38.3256757,32.943659 38.3065489,33.0011435 C37.8857588,34.2626819 35.6138254,34.7408524 34.1510395,34.8797297 Z M38.9502079,44.7067568 L38.2633056,45.3944906 L37.5764033,44.7067568 L38.2633056,42.9878378 L38.9502079,44.7067568 Z M45.7477131,44.8330561 L45.7477131,44.324948 C45.752183,42.1029106 44.0968815,40.2274428 41.89158,39.9557173 C43.1888773,38.9348233 43.9871102,37.4073805 44.0845114,35.7594595 C44.0845114,30.2609148 40.9186071,29.1066528 38.2633056,29.1066528 C35.6080042,29.1066528 32.4420998,30.2609148 32.4420998,35.7594595 C32.5387734,37.408316 33.3371102,38.9367983 34.6350312,39.9582121 C32.4306653,40.2298337 30.7756757,42.1038462 30.7788981,44.324948 L30.7788981,44.8305613 C27.1419958,40.6938669 27.5471933,34.3919958 31.6838877,30.7550936 C35.8205821,27.1181913 42.1224532,27.5233888 45.7593555,31.6600832 C47.3618503,33.4827443 48.2446985,35.8272349 48.2425196,38.254158 C48.2419958,40.6782744 47.3546778,43.0182952 45.7477131,44.8330561 Z"></path>
                        </g>
                        <rect id="Rectangle" fill="#CA1836" x="50" y="0" width="20" height="1" rx="0.5"></rect>
                        <rect id="Rectangle" fill="#CA1836" transform="translate(0.500000, 60.000000) rotate(90.000000) translate(-0.500000, -60.000000) " x="-9.5" y="59.5" width="20" height="1" rx="0.5"></rect>
                        <rect id="Rectangle" fill="#CA1836" transform="translate(10.500000, 69.500000) rotate(90.000000) translate(-10.500000, -69.500000) " x="10" y="59.5" width="1" height="20" rx="0.5"></rect>
                        <rect id="Rectangle" fill="#CA1836" x="69" y="0" width="1" height="20" rx="0.5"></rect>
                    </g>
                </g>
            </g>
        </g>
    </g>
</svg>