<?xml version="1.0" encoding="UTF-8"?>
<svg width="70px" height="70px" viewBox="0 0 70 70" version="1.1" xmlns="http://www.w3.org/2000/svg" xmlns:xlink="http://www.w3.org/1999/xlink">
    <!-- Generator: Sketch 56.2 (81672) - https://sketch.com -->
    <title>creativity</title>
    <desc>Created with Sketch.</desc>
    <g id="pages" stroke="none" stroke-width="1" fill="none" fill-rule="evenodd">
        <g id="aventin-career" transform="translate(-180.000000, -698.000000)">
            <g id="values" transform="translate(180.000000, 524.000000)">
                <g id="2" transform="translate(0.000000, 174.000000)">
                    <g id="creativity">
                        <g transform="translate(13.000000, 10.000000)" fill="#2D42AB" fill-rule="nonzero" id="Shape">
                            <path d="M13.8805489,9.927534 C12.3585262,10.5024679 11.2679986,11.9623994 11.2679986,13.6828785 C11.2679986,14.3454477 11.4444479,14.9620378 11.7293606,15.5141789 C10.5221171,15.9782916 9.65834064,17.1423069 9.65834064,18.5118523 C9.65834064,19.8817907 10.5221171,21.0454131 11.7293606,21.5099189 C11.4444479,22.0620599 11.2679986,22.67865 11.2679986,23.3408262 C11.2679986,25.0616983 12.3585262,26.5216298 13.8805489,27.0961708 C13.7599032,27.4333501 13.6824855,27.7917505 13.6824855,28.1698 C13.6824855,29.9452968 15.1263047,31.3891159 16.9018014,31.3891159 C17.302644,31.3891159 17.6826585,31.3061966 18.036736,31.1725824 C18.5582243,32.2489626 19.6518958,32.9987738 20.9259463,32.9987738 C22.7014431,32.9987738 24.1452622,31.5549547 24.1452622,29.7794579 L24.1452622,7.24424668 C24.1452622,5.46914296 22.7014431,4.02493078 20.9259463,4.02493078 C19.6518958,4.02493078 18.5582243,4.77513521 18.036736,5.85112233 C17.6826585,5.71750815 17.302644,5.63458873 16.9018014,5.63458873 C15.1263047,5.63458873 13.6824855,7.07880091 13.6824855,8.85390463 C13.6824855,9.23234718 13.7599032,9.59035463 13.8805489,9.927534 Z M16.9018014,7.24424668 C17.7895498,7.24424668 18.5114594,7.96615634 18.5114594,8.85390463 L20.1211173,8.85390463 C20.1211173,8.08051429 19.8354187,7.37864688 19.3791656,6.82336207 C19.5658325,6.14114376 20.1847806,5.63458873 20.9259463,5.63458873 C21.8136947,5.63458873 22.5356042,6.35649839 22.5356042,7.24424668 L22.5356042,29.7794579 C22.5356042,30.6672063 21.8136947,31.3891159 20.9259463,31.3891159 C20.1847806,31.3891159 19.5658325,30.8829539 19.3791656,30.2003427 C19.8354187,29.6450578 20.1211173,28.9435834 20.1211173,28.1698 L18.5114594,28.1698 C18.5114594,29.0575484 17.7895498,29.7794579 16.9018014,29.7794579 C16.0140531,29.7794579 15.2921435,29.0575484 15.2921435,28.1698 C15.2921435,27.2820517 16.0140531,26.5601421 16.9018014,26.5601421 L16.9018014,24.9504841 C16.1178006,24.9504841 15.4080734,25.2436494 14.8496448,25.7105131 C13.7292505,25.5018391 12.8776565,24.5209538 12.8776565,23.3408262 C12.8776565,22.0097932 13.9611105,20.9263392 15.2921435,20.9263392 C16.6235695,20.9263392 17.7066304,22.0097932 17.7066304,23.3408262 L19.3162883,23.3408262 C19.3162883,21.1220448 17.5113179,19.3166813 15.2921435,19.3166813 C14.3827811,19.3166813 13.5520152,19.6314607 12.8776565,20.1427314 L12.8776565,20.1215103 C11.9899082,20.1215103 11.2679986,19.3996007 11.2679986,18.5118523 C11.2679986,17.624104 11.9899082,16.9021944 12.8776565,16.9021944 L12.8776565,16.8813663 C13.5520152,17.392637 14.3827811,17.7070233 15.2921435,17.7070233 C17.5113179,17.7070233 19.3162883,15.9020529 19.3162883,13.6828785 L17.7066304,13.6828785 C17.7066304,15.0143046 16.6235695,16.0973654 15.2921435,16.0973654 C13.9611105,16.0973654 12.8776565,15.0143046 12.8776565,13.6828785 C12.8776565,12.5031439 13.7292505,11.5222586 14.8496448,11.3135846 C15.4080734,11.7804483 16.1178006,12.0732205 16.9018014,12.0732205 L16.9018014,10.4635626 C16.0140531,10.4635626 15.2921435,9.74165302 15.2921435,8.85390463 C15.2921435,7.96615634 16.0140531,7.24424668 16.9018014,7.24424668 L16.9018014,7.24424668 Z"></path>
                            <path d="M32.9983809,5.63458873 C32.5975383,5.63458873 32.2179169,5.71750815 31.8638392,5.85112233 C31.3419579,4.77513521 30.2482866,4.02493078 28.974236,4.02493078 C27.1987393,4.02493078 25.7549201,5.46914296 25.7549201,7.24424668 L25.7549201,29.7794579 C25.7549201,31.5549547 27.1987393,32.9987738 28.974236,32.9987738 C30.2482866,32.9987738 31.3419579,32.2489626 31.8638392,31.1725824 C32.2179169,31.3061966 32.5975383,31.3891159 32.9983809,31.3891159 C34.7738777,31.3891159 36.2176968,29.9452968 36.2176968,28.1698 C36.2176968,27.7917505 36.1406721,27.4333501 36.0196334,27.0961708 C37.5416561,26.5216298 38.6321837,25.0616983 38.6321837,23.3408262 C38.6321837,22.67865 38.4561274,22.0620599 38.1712148,21.5099189 C39.3784582,21.0454131 40.2418416,19.8817907 40.2418416,18.5118523 C40.2418416,17.1423069 39.3784582,15.9782916 38.1712148,15.5141789 C38.4561274,14.9620378 38.6321837,14.3454477 38.6321837,13.6828785 C38.6321837,11.9623994 37.5416561,10.5024679 36.0196334,9.927534 C36.1406721,9.59035463 36.2176968,9.23234718 36.2176968,8.85390463 C36.2176968,7.07880091 34.7738777,5.63458873 32.9983809,5.63458873 L32.9983809,5.63458873 Z M37.0225258,13.6828785 C37.0225258,15.0143046 35.9394649,16.0973654 34.6080388,16.0973654 C33.2770058,16.0973654 32.1935519,15.0143046 32.1935519,13.6828785 L30.583894,13.6828785 C30.583894,15.9020529 32.3892574,17.7070233 34.6080388,17.7070233 C35.5174013,17.7070233 36.3481671,17.392637 37.0225258,16.8813663 L37.0225258,16.9021944 C37.9102741,16.9021944 38.6321837,17.624104 38.6321837,18.5118523 C38.6321837,19.3996007 37.9102741,20.1215103 37.0225258,20.1215103 L37.0225258,20.1427314 C36.3481671,19.6314607 35.5174013,19.3166813 34.6080388,19.3166813 C32.3892574,19.3166813 30.583894,21.1220448 30.583894,23.3408262 L32.1935519,23.3408262 C32.1935519,22.0097932 33.2770058,20.9263392 34.6080388,20.9263392 C35.9394649,20.9263392 37.0225258,22.0097932 37.0225258,23.3408262 C37.0225258,24.5209538 36.1709318,25.5018391 35.0509306,25.7105131 C34.4921089,25.2436494 33.7823818,24.9504841 32.9983809,24.9504841 L32.9983809,26.5601421 C33.8861293,26.5601421 34.6080388,27.2820517 34.6080388,28.1698 C34.6080388,29.0575484 33.8861293,29.7794579 32.9983809,29.7794579 C32.1106326,29.7794579 31.3887229,29.0575484 31.3887229,28.1698 L29.779065,28.1698 C29.779065,28.9435834 30.0647636,29.6450578 30.5210167,30.2003427 C30.3343499,30.8829539 29.7154018,31.3891159 28.974236,31.3891159 C28.0864877,31.3891159 27.3645781,30.6672063 27.3645781,29.7794579 L27.3645781,7.24424668 C27.3645781,6.35649839 28.0864877,5.63458873 28.974236,5.63458873 C29.7154018,5.63458873 30.3343499,6.14114376 30.5210167,6.82336207 C30.0647636,7.37864688 29.779065,8.08051429 29.779065,8.85390463 L31.3887229,8.85390463 C31.3887229,7.96615634 32.1106326,7.24424668 32.9983809,7.24424668 C33.8861293,7.24424668 34.6080388,7.96615634 34.6080388,8.85390463 C34.6080388,9.74165302 33.8861293,10.4635626 32.9983809,10.4635626 L32.9983809,12.0732205 C33.7823818,12.0732205 34.4921089,11.7804483 35.0509306,11.3135846 C36.1709318,11.5222586 37.0225258,12.5031439 37.0225258,13.6828785 L37.0225258,13.6828785 Z"></path>
                            <path d="M37.6237896,5.01996358 C33.8629433,1.48508239 28.9372957,-0.287270523 23.7679986,0.0381193159 L23.8678163,1.64424044 C28.5910777,1.35068219 33.086802,2.96584195 36.5218656,6.19262455 C39.958501,9.42215795 41.8514996,13.7980225 41.8514996,18.5118523 C41.8514996,24.1924201 39.0200578,29.4599629 34.2771473,32.6030401 C32.6411595,33.6876729 31.4032634,35.2348466 30.6404835,37.0229187 L19.2262953,37.0229187 C18.4529049,35.2218782 17.210293,33.663701 15.5715543,32.5692436 C10.683633,29.3023768 7.87498431,23.8465952 8.05772133,17.9726799 L6.4488493,17.922771 C6.24842807,24.3551151 9.32509115,30.330813 14.6775182,33.9069573 C15.8596108,34.697246 16.8035557,35.7732332 17.4614091,37.0229187 L15.2921435,37.0229187 L15.2921435,38.6325767 L18.1035432,38.6325767 C18.2595573,39.154065 18.384526,39.6885217 18.4477962,40.2422346 L16.9018014,40.2422346 L16.9018014,41.8518926 L18.5114594,41.8518926 L18.5114594,44.2663795 C18.5114594,44.7116292 18.8722177,45.0712085 19.3162883,45.0712085 L20.1211173,45.0712085 C20.1211173,47.7344536 22.2868461,49.9001823 24.9500911,49.9001823 C27.6133362,49.9001823 29.779065,47.7344536 29.779065,45.0712085 L30.583894,45.0712085 C31.0283576,45.0712085 31.3887229,44.7116292 31.3887229,44.2663795 L31.3887229,41.8518926 L32.9983809,41.8518926 L32.9983809,40.2422346 L31.4453125,40.2422346 C31.502295,39.6893077 31.6158671,39.1532791 31.7687374,38.6325767 L34.6080388,38.6325767 L34.6080388,37.0229187 L32.4037978,37.0229187 C33.0522195,35.7869875 33.9906628,34.7243618 35.1668606,33.9454697 C40.3601296,30.5013676 43.4611575,24.7323787 43.4611575,18.5118523 C43.4611575,13.4239028 41.3331551,8.50572183 37.6237896,5.01996358 L37.6237896,5.01996358 Z M24.9500911,48.2905243 C23.1745945,48.2905243 21.7307753,46.8467052 21.7307753,45.0712085 L28.169407,45.0712085 C28.169407,46.8467052 26.7255879,48.2905243 24.9500911,48.2905243 Z M29.779065,43.4615505 L20.1211173,43.4615505 L20.1211173,41.8518926 L29.779065,41.8518926 L29.779065,43.4615505 Z M29.8364405,40.2422346 L20.0566681,40.2422346 C20.0028295,39.6944165 19.9159803,39.15603 19.783938,38.6325767 L30.0867706,38.6325767 C29.9586581,39.155244 29.8843844,39.6959884 29.8364405,40.2422346 Z"></path>
                            <path d="M5.63419577,5.63458873 C7.40969256,5.63458873 8.85351167,7.07880091 8.85351167,8.85390463 C8.85351167,9.29915433 9.21427002,9.6587336 9.65834064,9.6587336 C10.1028043,9.6587336 10.4631696,9.29915433 10.4631696,8.85390463 C10.4631696,7.07880091 11.9069888,5.63458873 13.6824855,5.63458873 C14.1269492,5.63458873 14.4873145,5.27500946 14.4873145,4.82975976 C14.4873145,4.38490322 14.1269492,4.02493078 13.6824855,4.02493078 C11.9069888,4.02493078 10.4631696,2.58111167 10.4631696,0.805614889 C10.4631696,0.36075835 10.1028043,0.000785965795 9.65834064,0.000785965795 C9.21427002,0.000785965795 8.85351167,0.36075835 8.85351167,0.805614889 C8.85351167,2.58111167 7.40969256,4.02493078 5.63419577,4.02493078 C5.19012515,4.02493078 4.8293668,4.38490322 4.8293668,4.82975976 C4.8293668,5.27500946 5.19012515,5.63458873 5.63419577,5.63458873 Z M9.65834064,3.47200392 C10.0159551,4.00960453 10.478496,4.47253833 11.0160966,4.82975976 C10.478496,5.18737425 10.0159551,5.64991509 9.65834064,6.18751569 C9.30111922,5.64991509 8.83818531,5.18737425 8.30058471,4.82975976 C8.83818531,4.47253833 9.30111922,4.00960453 9.65834064,3.47200392 Z"></path>
                            <path d="M8.85351167,13.6828785 C9.29797535,13.6828785 9.65834064,13.3232992 9.65834064,12.8780495 C9.65834064,12.433193 9.29797535,12.0732205 8.85351167,12.0732205 C7.07801499,12.0732205 5.63419577,10.6294014 5.63419577,8.85390463 C5.63419577,8.40904809 5.27383048,8.04907565 4.8293668,8.04907565 C4.38529618,8.04907565 4.02453783,8.40904809 4.02453783,8.85390463 C4.02453783,10.6294014 2.58071871,12.0732205 0.805221932,12.0732205 C0.361151308,12.0732205 0.000392982897,12.433193 0.000392982897,12.8780495 C0.000392982897,13.3232992 0.361151308,13.6828785 0.805221932,13.6828785 C2.58071871,13.6828785 4.02453783,15.1270906 4.02453783,16.9021944 C4.02453783,17.3474441 4.38529618,17.7070233 4.8293668,17.7070233 C5.27383048,17.7070233 5.63419577,17.3474441 5.63419577,16.9021944 C5.63419577,15.1270906 7.07801499,13.6828785 8.85351167,13.6828785 Z M4.8293668,14.2358054 C4.47214537,13.6982048 4.00921147,13.235664 3.47161087,12.8780495 C4.00921147,12.5208281 4.47135936,12.0578943 4.8293668,11.5202937 C5.18698129,12.0578943 5.64952213,12.5200422 6.18712274,12.8780495 C5.64952213,13.235664 5.18698129,13.6982048 4.8293668,14.2358054 Z"></path>
                        </g>
                        <rect id="Rectangle" fill="#CA1836" x="50" y="0" width="20" height="1" rx="0.5"></rect>
                        <rect id="Rectangle" fill="#CA1836" transform="translate(0.500000, 60.000000) rotate(90.000000) translate(-0.500000, -60.000000) " x="-9.5" y="59.5" width="20" height="1" rx="0.5"></rect>
                        <rect id="Rectangle" fill="#CA1836" transform="translate(10.500000, 69.500000) rotate(90.000000) translate(-10.500000, -69.500000) " x="10" y="59.5" width="1" height="20" rx="0.5"></rect>
                        <rect id="Rectangle" fill="#CA1836" x="69" y="0" width="1" height="20" rx="0.5"></rect>
                    </g>
                </g>
            </g>
        </g>
    </g>
</svg>