<?xml version="1.0" encoding="UTF-8"?>
<svg width="70px" height="70px" viewBox="0 0 70 70" version="1.1" xmlns="http://www.w3.org/2000/svg" xmlns:xlink="http://www.w3.org/1999/xlink">
    <!-- Generator: Sketch 56.2 (81672) - https://sketch.com -->
    <title>development</title>
    <desc>Created with Sketch.</desc>
    <g id="pages" stroke="none" stroke-width="1" fill="none" fill-rule="evenodd">
        <g id="aventin-main" transform="translate(-180.000000, -1125.000000)">
            <g id="advantages" transform="translate(180.000000, 970.000000)">
                <g id="1" transform="translate(0.000000, 155.000000)">
                    <g id="development">
                        <g transform="translate(10.000000, 10.000000)" fill="#2D42AB" fill-rule="nonzero">
                            <path d="M49.197619,34.2055901 C49.1973085,34.2055901 49.1969979,34.2054865 49.1966874,34.2054865 L49.1966874,34.2030021 L45.9759834,33.7433747 C45.5230849,33.6793996 45.2078675,33.260352 45.2718427,32.8075569 C45.3026915,32.589234 45.4193582,32.392236 45.5958592,32.2601449 L46.6517598,31.4700828 L48.8612836,31.4700828 C49.3186335,31.4700828 49.689441,31.0992754 49.689441,30.6419255 L49.689441,0.82826087 C49.689441,0.370910973 49.3186335,0.000103519669 48.8612836,0.000103519669 L0.82815735,0.000103519669 C0.370807453,0.000103519669 -7.35642809e-07,0.370910973 -7.35642809e-07,0.82826087 L-7.35642809e-07,30.6419255 C-7.35642809e-07,31.0992754 0.370807453,31.4700828 0.82815735,31.4700828 L2.96977226,31.4700828 L1.8989648,32.5408903 C1.61677019,32.8233954 1.57639752,33.2670807 1.80289855,33.5959627 L3.37639752,35.8849896 L0.654244306,36.4564182 C0.272153209,36.5385093 -0.000517598344,36.8763975 -7.35642809e-07,37.2671843 L-7.35642809e-07,40.5798137 C-7.35642809e-07,40.9715321 0.274223602,41.3098344 0.657556936,41.3905797 L3.37971014,41.9628364 L1.80621118,44.2510352 C1.57971014,44.5799172 1.62008282,45.0236025 1.90227743,45.3061077 L4.38674948,47.7905797 C4.66925466,48.0727743 5.11293996,48.113147 5.44182195,47.886646 L7.7300207,46.313147 L8.30227743,49.0353002 C8.38405797,49.4161491 8.72018634,49.6885093 9.10973085,49.6895445 L12.4223602,49.6895445 C12.8140787,49.6897516 13.152381,49.4153209 13.2331263,49.0319876 L13.805383,46.3090062 L16.0935818,47.886646 C16.4224638,48.113147 16.8661491,48.0727743 17.1486542,47.7905797 L19.6331263,45.3061077 C19.9153209,45.0236025 19.9556936,44.5799172 19.7291925,44.2510352 L18.1556936,41.9620083 L20.8778468,41.3905797 C21.2599379,41.3084886 21.5326087,40.9706004 21.5320911,40.5798137 L21.5320911,37.2671843 C21.5322981,36.8754658 21.2578675,36.5371636 20.8745342,36.4564182 L18.152381,35.8841615 L19.7258799,33.5959627 C19.952381,33.2670807 19.9120083,32.8233954 19.6298137,32.5408903 L18.5623188,31.4700828 L21.9801242,31.4700828 L21.3175983,36.0787785 C21.2519669,36.5313665 21.5656315,36.9515528 22.0182195,37.0172878 C22.0217391,37.0178054 22.0253623,37.018323 22.028882,37.0187371 L25.2495859,37.4783644 C25.7024845,37.5423395 26.0177019,37.9613872 25.9537267,38.4141822 C25.9228778,38.6325052 25.8062112,38.8295031 25.6297101,38.9615942 L23.0227743,40.9110766 C22.6568323,41.1855072 22.5827122,41.7045549 22.8571429,42.0704969 L25.8385093,46.0456522 C26.11294,46.4115942 26.6319876,46.4857143 26.9979296,46.2112836 L29.6008282,44.2584886 C29.9666667,43.9839545 30.4858178,44.0580745 30.7602484,44.423913 C30.892236,44.599793 30.9488613,44.820911 30.9175983,45.0386128 L30.4571429,48.2593168 C30.392236,48.7121118 30.7066253,49.131677 31.1593168,49.1966874 C31.1596273,49.1966874 31.1599379,49.1967909 31.1602484,49.1967909 L36.0786749,49.8990683 C36.1175983,49.9049689 36.1569358,49.9081781 36.1962733,49.9081781 C36.6084886,49.9081781 36.957971,49.6049689 37.0161491,49.1967909 L37.4766046,45.976087 C37.5410973,45.5232919 37.9604555,45.2084886 38.4132505,45.2729814 C38.6308489,45.3039337 38.8271222,45.4201863 38.9590062,45.5959627 L40.9109731,48.1988613 C41.1854037,48.5648033 41.7044513,48.6389234 42.0703934,48.3644928 L46.0455487,45.3831263 C46.4114907,45.1086957 46.4856108,44.589648 46.2111801,44.223706 L44.2583851,41.6208075 C43.9838509,41.2549689 44.057971,40.7358178 44.4238095,40.4613872 C44.5996894,40.3293996 44.820911,40.2727743 45.0385093,40.3040373 L48.2592133,40.7636646 C48.7119048,40.8286749 49.131677,40.5142857 49.1966874,40.0615942 C49.1966874,40.0614907 49.1966874,40.0614907 49.1966874,40.0613872 L49.899793,35.1429607 C49.9646998,34.6902692 49.6503106,34.2706004 49.197619,34.2055901 Z M19.8757764,37.939648 L19.8757764,39.9073499 L17.8111801,40.3413043 C16.915942,40.5293996 16.3427536,41.4075569 16.5308489,42.302795 C16.576087,42.5179089 16.6635611,42.7218427 16.7884058,42.902795 L17.9710145,44.6228778 L16.4654244,46.1284679 L14.7453416,44.9425466 C13.9921325,44.423499 12.960766,44.613354 12.4416149,45.3665631 C12.3171843,45.547205 12.2298137,45.7507246 12.1846791,45.9653209 L11.7498965,48.0332298 L9.78219462,48.0332298 L9.34741201,45.9694617 C9.15807453,45.0745342 8.27908903,44.5024845 7.38416149,44.6918219 C7.17163561,44.7367495 6.97008282,44.8230849 6.79089027,44.9458592 L5.06666667,46.1284679 L3.5610766,44.6228778 L4.74699793,42.902795 C5.26645963,42.149793 5.07722567,41.118323 4.3242236,40.5988613 C4.14327122,40.4740166 3.93933747,40.3864389 3.7242236,40.3413043 L1.6563147,39.9073499 L1.6563147,37.939648 L3.72091097,37.5056936 C4.61583851,37.3162526 5.18768116,36.4371636 4.99824017,35.542236 C4.95320911,35.3295031 4.86666667,35.1276398 4.7436853,34.9483437 L3.5610766,33.2241201 L5.06666667,31.71853 L6.79089027,32.9011387 C7.54409938,33.4201863 8.57556936,33.2303313 9.09461698,32.4771222 C9.21904762,32.2964803 9.30641822,32.0929607 9.3515528,31.8783644 L9.78219462,29.8137681 L11.7498965,29.8137681 L12.1846791,31.8775362 C12.3726708,32.7727743 13.2507246,33.3461698 14.1459627,33.1581781 C14.360766,33.1130435 14.5644928,33.0256729 14.7453416,32.9011387 L16.4654244,31.71853 L17.9710145,33.2241201 L16.7884058,34.9483437 C16.2689441,35.7013458 16.4581781,36.7328157 17.2111801,37.2522774 C17.3921325,37.3771222 17.5960663,37.4646998 17.8111801,37.5098344 L19.8757764,37.939648 Z M14.299793,31.1959627 L13.8028986,31.5371636 L13.2306418,28.8150104 C13.1501035,28.4325052 12.813147,28.1584886 12.4223602,28.1574534 L10.7660455,28.1574534 L10.7660455,22.360352 L14.0786749,22.360352 L14.0786749,30.6419255 C14.0800207,30.8478261 14.1590062,31.0456522 14.299793,31.1959627 Z M18.2194617,17.3914079 C17.7621118,17.3914079 17.3913043,17.7622153 17.3913043,18.2195652 L17.3913043,29.8137681 L15.7349896,29.8137681 L15.7349896,21.5321946 C15.7349896,21.0748447 15.3641822,20.7040373 14.9068323,20.7040373 L9.9378882,20.7040373 C9.4805383,20.7040373 9.10973085,21.0748447 9.10973085,21.5321946 L9.10973085,28.1574534 C8.71801242,28.1572464 8.37971014,28.431677 8.2989648,28.8150104 L7.72670807,31.5379917 L5.43850932,29.960352 C5.29989648,29.8672878 5.13592133,29.8193582 4.9689441,29.8228778 L4.9689441,29.8137681 L1.6563147,29.8137681 L1.6563147,1.65641822 L48.0331263,1.65641822 L48.0331263,28.7098344 L45.3830228,25.176087 C45.1085921,24.8101449 44.5895445,24.7360248 44.2236025,25.0104555 L41.6207039,26.9632505 C41.2548654,27.2377847 40.7357143,27.1636646 40.4612836,26.7978261 C40.3292961,26.6219462 40.2726708,26.4008282 40.3039337,26.1831263 L40.7643892,22.9624224 C40.7959627,22.7330228 40.728882,22.5010352 40.5797101,22.323913 L40.5797101,7.45351967 C40.5797101,6.99616977 40.2089027,6.62536232 39.7515528,6.62536232 L34.7826087,6.62536232 C34.3252588,6.62536232 33.9544513,6.99616977 33.9544513,7.45351967 L33.9544513,23.7798137 L33.7449275,25.2456522 C33.6841615,25.6952381 33.2703934,26.010559 32.8208075,25.949793 C32.6163561,25.9221532 32.4298137,25.8186335 32.2981366,25.6597308 L32.2981366,11.5943064 C32.2981366,11.1369565 31.9273292,10.7661491 31.4699793,10.7661491 L26.5010352,10.7661491 C26.0436853,10.7661491 25.6728778,11.1369565 25.6728778,11.5943064 L25.6728778,25.465942 L25.1759834,25.8386128 C24.8100414,26.1130435 24.7359213,26.6320911 25.010352,26.9980331 L26.963147,29.6009317 C27.2376812,29.9667702 27.1635611,30.4859213 26.7977226,30.760352 C26.6218427,30.8923395 26.4006211,30.9489648 26.1830228,30.9177019 L24.0165631,30.6087992 L24.0165631,18.2195652 C24.0165631,17.7622153 23.6457557,17.3914079 23.1884058,17.3914079 L18.2194617,17.3914079 Z M38.9233954,8.28167702 L38.9233954,21.8634576 L35.610766,21.3897516 L35.610766,8.28167702 L38.9233954,8.28167702 Z M30.6418219,12.4224638 L30.6418219,23.4651139 L30.310559,23.0228778 C30.0361284,22.6569358 29.5170807,22.5828157 29.1511387,22.8572464 L27.3291925,24.223706 L27.3291925,12.4224638 L30.6418219,12.4224638 Z M22.3602484,29.8137681 L19.047619,29.8137681 L19.047619,19.0477226 L22.3602484,19.0477226 L22.3602484,29.8137681 Z M47.673706,39.0063147 L45.2720497,38.6634576 C43.9136646,38.4694617 42.6552795,39.413354 42.4612836,40.7717391 C42.3681159,41.4240166 42.5378882,42.086646 42.9333333,42.6137681 L44.389234,44.5549689 L41.7391304,46.5425466 L40.284058,44.6021739 C39.4613872,43.5039337 37.9042443,43.2806418 36.8061077,44.1032091 C36.2781573,44.4986542 35.9291925,45.0878882 35.8360248,45.7408903 L35.4931677,48.1425466 L32.2153209,47.6738095 L32.5581781,45.2721532 C32.7517598,43.9137681 31.8074534,42.6555901 30.4490683,42.4620083 C29.797412,42.3691511 29.1355072,42.5387164 28.6086957,42.9334369 L26.6666667,44.3893375 L24.679089,41.739234 L26.6186335,40.2841615 C27.7164596,39.4609731 27.9391304,37.9037267 27.115942,36.8060041 C26.7207039,36.278882 26.1321946,35.9303313 25.4799172,35.8369565 L23.0782609,35.4932712 L23.5469979,32.2145963 L25.9486542,32.5574534 C27.3070393,32.7514493 28.5654244,31.8075569 28.7594203,30.4491718 C28.852588,29.7968944 28.6828157,29.134265 28.2873706,28.6071429 L26.8322981,26.6667702 L29.4824017,24.6791925 L30.9374741,26.6195652 C31.7601449,27.7178054 33.3172878,27.9410973 34.4154244,27.11853 C34.9433747,26.7230849 35.2923395,26.1338509 35.3855072,25.4808489 L35.7283644,23.0791925 L39.0070393,23.5479296 L38.6641822,25.9495859 C38.4706004,27.307971 39.4149068,28.5661491 40.7732919,28.7597308 C41.4249482,28.852588 42.086853,28.6830228 42.6136646,28.2883023 L44.5548654,26.8324017 L46.5424431,29.4825052 L44.6028986,30.9375776 C43.5050725,31.760766 43.2824017,33.3180124 44.1055901,34.415735 C44.5008282,34.9428571 45.0893375,35.2914079 45.7416149,35.3847826 L48.1432712,35.7284679 L47.673706,39.0063147 Z" id="Shape"></path>
                            <path d="M10.7660455,33.9545549 C8.02173913,33.9545549 5.79710145,36.1791925 5.79710145,38.923499 C5.79710145,41.6678054 8.02173913,43.8924431 10.7660455,43.8924431 C13.510352,43.8924431 15.7349896,41.6678054 15.7349896,38.923499 C15.7322981,36.1803313 13.5092133,33.9572464 10.7660455,33.9545549 Z M10.7660455,42.2361284 C8.93654244,42.2361284 7.45341615,40.7530021 7.45341615,38.923499 C7.45341615,37.0939959 8.93654244,35.6108696 10.7660455,35.6108696 C12.5955487,35.6108696 14.0786749,37.0939959 14.0786749,38.923499 C14.0786749,40.7530021 12.5955487,42.2361284 10.7660455,42.2361284 Z" id="Shape"></path>
                            <path d="M35.610766,28.9856108 C31.9517598,28.9856108 28.9855072,31.9518634 28.9855072,35.6108696 C28.9855072,39.2698758 31.9517598,42.2361284 35.610766,42.2361284 C39.2697723,42.2361284 42.2360248,39.2698758 42.2360248,35.6108696 C42.2318841,31.9535197 39.2681159,28.9897516 35.610766,28.9856108 Z M35.610766,40.5798137 C32.8664596,40.5798137 30.6418219,38.355176 30.6418219,35.6108696 C30.6418219,32.8665631 32.8664596,30.6419255 35.610766,30.6419255 C38.3550725,30.6419255 40.5797101,32.8665631 40.5797101,35.6108696 C40.5770186,38.3540373 38.3539337,40.5771222 35.610766,40.5798137 Z" id="Shape"></path>
                            <path d="M33.2919255,3.32929607 L29.1511387,2.50113872 L28.8198758,4.12432712 L30.8273292,4.52681159 L8.69068323,17.5048654 L9.52877847,18.934265 L31.9519669,5.78975155 L31.4865424,8.11604555 L33.1097308,8.44068323 L33.9378882,4.29989648 C34.0253623,3.85393375 33.73706,3.42080745 33.2919255,3.32929607 Z" id="Path"></path>
                            <rect id="Rectangle" x="3.3126294" y="22.360352" width="1.6563147" height="5.79710145"></rect>
                            <rect id="Rectangle" x="3.3126294" y="19.0477226" width="1.6563147" height="1.6563147"></rect>
                            <rect id="Rectangle" x="44.7204969" y="10.7661491" width="1.6563147" height="12.4223602"></rect>
                            <rect id="Rectangle" x="44.7204969" y="7.45351967" width="1.6563147" height="1.6563147"></rect>
                            <rect id="Rectangle" x="19.047619" y="47.2050725" width="1.6563147" height="1.6563147"></rect>
                            <rect id="Rectangle" x="22.3602484" y="47.2050725" width="1.6563147" height="1.6563147"></rect>
                            <rect id="Rectangle" x="25.6728778" y="47.2050725" width="1.6563147" height="1.6563147"></rect>
                        </g>
                        <rect id="Rectangle" fill="#CA1836" x="50" y="0" width="20" height="1" rx="0.5"></rect>
                        <rect id="Rectangle" fill="#CA1836" transform="translate(0.500000, 60.000000) rotate(90.000000) translate(-0.500000, -60.000000) " x="-9.5" y="59.5" width="20" height="1" rx="0.5"></rect>
                        <rect id="Rectangle" fill="#CA1836" transform="translate(10.500000, 69.500000) rotate(90.000000) translate(-10.500000, -69.500000) " x="10" y="59.5" width="1" height="20" rx="0.5"></rect>
                        <rect id="Rectangle" fill="#CA1836" x="69" y="0" width="1" height="20" rx="0.5"></rect>
                    </g>
                </g>
            </g>
        </g>
    </g>
</svg>