<?xml version="1.0" encoding="UTF-8"?>
<svg width="70px" height="70px" viewBox="0 0 70 70" version="1.1" xmlns="http://www.w3.org/2000/svg" xmlns:xlink="http://www.w3.org/1999/xlink">
    <!-- Generator: Sketch 56.2 (81672) - https://sketch.com -->
    <title>discipline</title>
    <desc>Created with Sketch.</desc>
    <g id="pages" stroke="none" stroke-width="1" fill="none" fill-rule="evenodd">
        <g id="aventin-career" transform="translate(-573.000000, -698.000000)">
            <g id="values" transform="translate(180.000000, 524.000000)">
                <g id="5" transform="translate(393.000000, 174.000000)">
                    <g id="discipline">
                        <g id="clock" transform="translate(11.000000, 12.000000)" fill="#2D42AB" fill-rule="nonzero">
                            <path d="M24.9490368,1.67801503 C35.7614531,1.67801503 44.8115159,9.77250836 45.9986181,20.5065536 L46.1851969,22.1921273 L49.8980738,18.4796483 L48.74598,17.3275545 L47.3778685,18.6944724 C45.4062605,7.95565333 36.0383375,0.0485342875 24.9490368,0.0485342875 C24.3853224,0.0485342875 23.8164364,0.0688232577 23.2598828,0.109401198 L23.3788317,1.73490366 C23.8963987,1.69671271 24.4243091,1.67801503 24.9490368,1.67801503 Z" id="Path"></path>
                            <path d="M24.9490368,44.0445142 C14.1366206,44.0445142 5.08655774,35.9492253 3.89945556,25.2159757 L3.71287686,23.5300042 L0,27.2428811 L1.1520938,28.3949749 L2.51980742,27.0276592 C4.49181326,37.7668761 13.8597362,45.673995 24.9490368,45.673995 C25.5143426,45.673995 26.0840243,45.6537061 26.6385888,45.6119348 L26.5180486,43.9872278 C26.0032664,44.0258167 25.4753559,44.0445142 24.9490368,44.0445142 L24.9490368,44.0445142 Z" id="Path"></path>
                            <path d="M24.9490368,6.56645724 C15.9642169,6.56645724 8.65422944,13.8764447 8.65422944,22.8612646 C8.65422944,31.8460846 15.9642169,39.156072 24.9490368,39.156072 C33.9338568,39.156072 41.2438442,31.8460846 41.2438442,22.8612646 C41.2438442,13.8764447 33.9338568,6.56645724 24.9490368,6.56645724 Z M25.7637772,37.4848199 L25.7637772,33.4528894 L24.1342965,33.4528894 L24.1342965,37.4848199 C16.698995,37.0734716 10.73683,31.1113066 10.3250837,23.676005 L14.357412,23.676005 L14.357412,22.0465243 L10.3250837,22.0465243 C10.73683,14.6112228 16.698995,8.64905777 24.1342965,8.23731152 L24.1342965,12.2696398 L25.7637772,12.2696398 L25.7637772,8.23731152 C33.1990788,8.64905777 39.1612438,14.6112228 39.5725921,22.0465243 L35.5406616,22.0465243 L35.5406616,23.676005 L39.5725921,23.676005 C39.1612438,31.1113066 33.1990788,37.0734716 25.7637772,37.4848199 Z" id="Shape"></path>
                            <path d="M44.5028057,22.8612646 C44.5028057,12.079083 35.730423,3.30749577 24.9490368,3.30749577 C20.0434883,3.30749577 15.3519682,5.13310305 11.738149,8.44855526 L12.8393216,9.64918345 C16.1523869,6.61021776 20.4524498,4.9369765 24.9490368,4.9369765 C34.8325378,4.9369765 42.873325,12.9777639 42.873325,22.8612646 C42.873325,27.3578518 41.199686,31.6579146 38.1607203,34.9705821 L39.3625419,36.0721524 C42.6768007,32.4571399 44.5028057,27.7668132 44.5028057,22.8612646 L44.5028057,22.8612646 Z" id="Path"></path>
                            <path d="M7.0247487,22.8612646 C7.0247487,18.3654732 8.69798996,14.0646147 11.7369556,10.7507538 L10.5355319,9.64918345 C7.22087524,13.264196 5.39526796,17.9565117 5.39526796,22.8612646 C5.39526796,33.6426508 14.1676507,42.4150335 24.9490368,42.4150335 C29.8545854,42.4150335 34.5449121,40.5890285 38.1599246,37.2739741 L37.0583543,36.0721524 C33.7456868,39.1119138 29.445624,40.7855528 24.9490368,40.7855528 C15.0655361,40.7855528 7.0247487,32.7447656 7.0247487,22.8612646 Z" id="Path"></path>
                            <path d="M25.7637772,20.5670227 L25.7637772,13.8991206 L24.1342965,13.8991206 L24.1342965,20.5670227 C23.1882747,20.9043761 22.5048157,21.8002722 22.5048157,22.8612646 C22.5048157,24.2086893 23.6012145,25.3054857 24.9490368,25.3054857 C26.0096315,25.3054857 26.9059255,24.6220268 27.2432789,23.676005 L30.6522194,23.676005 L30.6522194,22.0465243 L27.2432789,22.0465243 C26.9974247,21.3563024 26.4539992,20.8128769 25.7637772,20.5670227 L25.7637772,20.5670227 Z M24.9490368,23.676005 C24.4990997,23.676005 24.1342965,23.3100083 24.1342965,22.8612646 C24.1342965,22.4121231 24.4990997,22.0465243 24.9490368,22.0465243 C25.3985762,22.0465243 25.7637772,22.4121231 25.7637772,22.8612646 C25.7637772,23.3100083 25.3985762,23.676005 24.9490368,23.676005 Z" id="Shape"></path>
                            <polygon id="Path" points="19.6985762 0.646461449 21.2958334 0.328203492 21.6140913 1.92625623 20.0168342 2.24411639"></polygon>
                            <polygon id="Path" points="15.4665411 2.09612644 16.972299 1.47273875 17.5952889 2.97849668 16.0899288 3.60148658"></polygon>
                            <polygon id="Path" points="11.5977177 4.3450167 12.952701 3.44036851 13.857747 4.79535181 12.502366 5.7003978"></polygon>
                            <polygon id="Path" points="8.24168759 7.30640709 9.39378139 6.15431329 10.5458752 7.30640709 9.39378139 8.4585009"></polygon>
                            <polygon id="Path" points="5.52694722 10.8645311 6.4323911 9.50994555 7.78697661 10.4153894 6.88193052 11.7699748"></polygon>
                            <polygon id="Path" points="3.56051094 14.8833333 4.18429654 13.3779732 5.68965667 14.0017588 5.06587108 15.5071189"></polygon>
                            <polygon id="Path" points="2.41597569 19.2092547 2.73383585 17.6112018 4.33188859 17.9286642 4.01442633 19.5271147"></polygon>
                            <polygon id="Path" points="28.282789 43.7930904 29.8800461 43.4752304 30.198304 45.0732831 28.601047 45.3911433"></polygon>
                            <polygon id="Path" points="32.3035804 42.7432371 33.8093383 42.1202471 34.4323283 43.6260051 32.9269682 44.248995"></polygon>
                            <polygon id="Path" points="36.0427136 40.9267798 37.3988903 40.0213359 38.3035386 41.376717 36.9477597 42.2821609"></polygon>
                            <polygon id="Path" points="39.3514029 38.4161224 40.5034967 37.2640286 41.6555905 38.4161224 40.5034967 39.5682162"></polygon>
                            <polygon id="Path" points="42.1122906 35.3087312 43.0177345 33.9529523 44.3727178 34.8579984 43.4676717 36.2137773"></polygon>
                            <polygon id="Path" points="44.2084172 31.7211684 44.8314071 30.2158082 46.337165 30.8387982 45.7137773 32.3445561"></polygon>
                            <polygon id="Path" points="45.5653895 27.7958544 45.8836474 26.1985972 47.4817002 26.5168552 47.1634422 28.1141123"></polygon>
                        </g>
                        <rect id="Rectangle" fill="#CA1836" x="50" y="0" width="20" height="1" rx="0.5"></rect>
                        <rect id="Rectangle" fill="#CA1836" transform="translate(0.500000, 60.000000) rotate(90.000000) translate(-0.500000, -60.000000) " x="-9.5" y="59.5" width="20" height="1" rx="0.5"></rect>
                        <rect id="Rectangle" fill="#CA1836" transform="translate(10.500000, 69.500000) rotate(90.000000) translate(-10.500000, -69.500000) " x="10" y="59.5" width="1" height="20" rx="0.5"></rect>
                        <rect id="Rectangle" fill="#CA1836" x="69" y="0" width="1" height="20" rx="0.5"></rect>
                    </g>
                </g>
            </g>
        </g>
    </g>
</svg>