<?xml version="1.0" encoding="UTF-8"?>
<svg width="70px" height="70px" viewBox="0 0 70 70" version="1.1" xmlns="http://www.w3.org/2000/svg" xmlns:xlink="http://www.w3.org/1999/xlink">
    <!-- Generator: Sketch 56.2 (81672) - https://sketch.com -->
    <title>goal</title>
    <desc>Created with Sketch.</desc>
    <g id="pages" stroke="none" stroke-width="1" fill="none" fill-rule="evenodd">
        <g id="aventin-about" transform="translate(-760.000000, -394.000000)">
            <g id="goals" transform="translate(760.000000, 335.000000)">
                <g id="goal" transform="translate(0.000000, 59.000000)">
                    <g transform="translate(10.000000, 12.000000)" fill="#2D42AB" fill-rule="nonzero">
                        <path d="M30.4958092,12.0256336 C30.6861601,12.2159845 30.9355753,12.3111112 31.1849905,12.3111112 C31.4344057,12.3111112 31.6839184,12.2159845 31.8741718,12.0256336 C32.2547761,11.6450293 32.2547761,11.0278753 31.8741718,10.6471736 L31.8610139,10.6340157 C31.4804096,10.2534114 30.8632556,10.2534114 30.4825538,10.6340157 C30.1019496,11.01462 30.1019496,11.631774 30.4825538,12.0124757 L30.4958092,12.0256336 Z" id="XMLID_4218_"></path>
                        <path d="M46.2198834,21.2475635 L49.6170569,17.85039 C49.8958094,17.5716376 49.9791427,17.1523393 49.8282655,16.7882068 C49.6773883,16.4239767 49.3220277,16.1865498 48.9277782,16.1865498 L41.8857703,16.1865498 C40.9653025,12.4185186 39.0334311,8.98508779 36.2717352,6.2232944 C32.2587722,2.21013647 26.9230022,0 21.2475635,0 C15.5721249,0 10.2363549,2.21013647 6.2232944,6.2232944 C2.21013647,10.2364523 0,15.5721249 0,21.2475635 C0,26.9230022 2.21013647,32.2587722 6.2232944,36.2718326 C7.41666673,37.465205 8.72768038,38.4977586 10.1291424,39.3615013 L7.19278758,44.5491232 C7.02202735,44.8508775 7.02436653,45.2206631 7.1990254,45.5200783 C7.3735868,45.8196885 7.69415211,46.003899 8.04093574,46.003899 L13.060429,46.003899 C13.4115985,46.003899 13.7356726,45.8150101 13.9086746,45.5093571 L15.9848929,41.8412284 C17.6842107,42.27232 19.4487331,42.495127 21.2475635,42.495127 C23.0463939,42.495127 24.8109164,42.27232 26.5102341,41.8412284 L28.5864525,45.5093571 C28.7594544,45.8150101 29.0835285,46.003899 29.4346981,46.003899 L34.4541913,46.003899 C34.8009749,46.003899 35.1215402,45.8196885 35.2961991,45.5201758 C35.470858,45.2206631 35.4731972,44.8508775 35.3024369,44.5492206 L32.3660821,39.3615988 C33.7675441,38.4977586 35.0785578,37.4653024 36.2719301,36.2719301 C39.0325539,33.5113063 40.9653999,30.0764135 41.8857703,26.3086747 L48.9278756,26.3086747 C49.3220277,26.3086747 49.6774858,26.0711503 49.828363,25.7070177 C49.9792402,25.3428852 49.8958094,24.9235869 49.6171544,24.6448345 L46.2198834,21.2475635 Z M44.4377197,20.2729046 L37.6356728,20.2729046 L39.7727099,18.1358676 L46.5748542,18.1358676 L44.4377197,20.2729046 Z M12.4921054,44.0545812 L9.71257318,44.0545812 L11.8340157,40.3067255 C12.5620859,40.6671543 13.3095518,40.9859652 14.0742691,41.2594545 L12.4921054,44.0545812 Z M32.7825539,44.0545812 L30.0030217,44.0545812 L28.4208579,41.2594545 C29.1855753,40.9859652 29.9330412,40.6671543 30.6611114,40.3067255 L32.7825539,44.0545812 Z M34.8934701,34.8934701 C33.6059457,36.1809944 32.167934,37.2630607 30.6199807,38.1256338 C30.6008774,38.1348931 30.5815792,38.143665 30.5627683,38.1542888 C30.5509749,38.1610139 30.5402537,38.1687138 30.5288501,38.1758288 C29.3414232,38.8290451 28.0901562,39.3535091 26.7918131,39.7408385 C26.740741,39.750975 26.6902536,39.7659847 26.6404486,39.7846982 C24.9100392,40.2854779 23.0989281,40.5458093 21.2475635,40.5458093 C19.396199,40.5458093 17.5850879,40.2854779 15.8546785,39.7847956 C15.804776,39.7660822 15.7542886,39.7510724 15.703119,39.740936 C14.4048734,39.3536065 13.1536063,38.8291426 11.9662769,38.1759262 C11.9548734,38.1688112 11.9441521,38.1611114 11.9323588,38.1543863 C11.9135479,38.1437625 11.8943471,38.1349906 11.8752438,38.1257313 C10.3272905,37.2631582 8.88927882,36.1810919 7.60175445,34.8934701 C3.95672518,31.2485383 1.94931775,26.4023394 1.94931775,21.2475635 C1.94931775,16.0927877 3.95672518,11.2465888 7.60165698,7.60165698 C11.2465888,3.95672518 16.0927877,1.94931775 21.2475635,1.94931775 C26.4023394,1.94931775 31.2485383,3.95672518 34.8934701,7.60165698 C37.2884993,9.99668624 38.9966865,12.9470761 39.873782,16.1865498 L39.3691036,16.1865498 C39.1106241,16.1865498 38.8626709,16.2892789 38.6799223,16.4720274 L36.0930802,19.0588695 C35.8320666,17.2868422 35.2591621,15.5638403 34.3940549,13.9968812 C34.1339184,13.5256336 33.5409359,13.3546785 33.0696884,13.6147175 C32.5984408,13.8748539 32.4273882,14.4678364 32.6875246,14.9390839 C33.6127683,16.6149124 34.1296299,18.4369397 34.2618911,20.2730021 L29.9644252,20.2730021 C29.7474661,18.2987331 28.875049,16.4697857 27.4502926,15.0450294 C25.79347,13.3881093 23.5906435,12.4756336 21.2475635,12.4756336 C18.9044836,12.4756336 16.7016571,13.3881093 15.0449319,15.0448344 C13.3881093,16.7017545 12.4756336,18.9044836 12.4756336,21.2475635 C12.4756336,23.5906435 13.3881093,25.79347 15.0448344,27.4501951 C16.7016571,29.1070178 18.9044836,30.0194934 21.2475635,30.0194934 C23.5906435,30.0194934 25.79347,29.1070178 27.4501951,27.4502926 C28.8749515,26.0255363 29.7473687,24.1965889 29.9643277,22.2222224 L34.2576026,22.2222224 C34.0251465,25.269006 32.7394739,28.2257312 30.4826513,30.4826513 C28.0158872,32.9495129 24.7360626,34.3079925 21.2475635,34.3079925 C17.7590645,34.3079925 14.4792399,32.9495129 12.0124757,30.4826513 C9.54561411,28.0158872 8.18713457,24.73616 8.18713457,21.2475635 C8.18713457,17.758967 9.54561411,14.4792399 12.0124757,12.0124757 C16.1042886,7.92066283 22.4961015,7.01403514 27.5561406,9.80769988 C28.0272907,10.0677389 28.6202731,9.8967837 28.8805071,9.42553614 C29.1406435,8.95428857 28.9695909,8.36140358 28.4983433,8.10116965 C25.706433,6.55974664 22.419006,5.94541915 19.2419105,6.37173494 C15.9587721,6.81208582 12.9821638,8.28596498 10.6341131,10.6341131 C7.79912287,13.4691034 6.23781681,17.2383042 6.23781681,21.2475635 C6.23781681,25.2568228 7.79912287,29.0261211 10.6340157,31.8610139 C13.469006,34.6960042 17.2383042,36.2573102 21.2475635,36.2573102 C25.2568228,36.2573102 29.0261211,34.6960042 31.8610139,31.8611114 C34.1646202,29.5576026 35.6260237,26.649123 36.0964915,23.4398637 L38.6798249,26.0231971 C38.8625734,26.2059456 39.1105266,26.3086747 39.3690062,26.3086747 L39.873782,26.3086747 C38.9963941,29.5479535 37.2875247,32.4994155 34.8934701,34.8934701 Z M24.4307994,19.4097467 C24.1616961,18.9434699 23.5655947,18.7838208 23.0994154,19.0530216 L20.7602341,20.4035089 C20.4586746,20.577583 20.2729046,20.8993179 20.2729046,21.2475635 C20.2729046,21.5958091 20.4586746,21.917544 20.7602341,22.0916181 L23.0994154,23.4421054 C23.2529242,23.5307019 23.420468,23.5728072 23.5858676,23.5728072 C23.9227097,23.5728072 24.2502926,23.3980509 24.4307994,23.0853803 C24.5889865,22.8115012 24.5980509,22.4930801 24.484893,22.2222224 L28.0007799,22.2222224 C27.7941523,23.6747565 27.127778,25.0159846 26.0718326,26.0718326 L26.0718326,26.0718326 C24.7832361,27.3605265 23.0699807,28.0701757 21.2475635,28.0701757 C19.4251464,28.0701757 17.711891,27.3605265 16.423197,26.0718326 C15.1346005,24.7832361 14.4249514,23.0699807 14.4249514,21.2475635 C14.4249514,19.4251464 15.1346005,17.711891 16.4232945,16.423197 C17.711891,15.1346005 19.4251464,14.4249514 21.2475635,14.4249514 C23.0699807,14.4249514 24.7832361,15.1346005 26.07193,16.4232945 C27.127778,17.4791424 27.7942497,18.8203705 28.0007799,20.2729046 L24.4849904,20.2729046 C24.5980509,20.0019495 24.5889865,19.6836259 24.4307994,19.4097467 Z M39.7727099,24.3592595 L37.6356728,22.2222224 L44.4377197,22.2222224 L46.5748542,24.3592595 L39.7727099,24.3592595 Z" id="XMLID_4221_"></path>
                    </g>
                    <rect id="Rectangle" fill="#CA1836" x="50" y="0" width="20" height="1" rx="0.5"></rect>
                    <rect id="Rectangle" fill="#CA1836" transform="translate(0.500000, 60.000000) rotate(90.000000) translate(-0.500000, -60.000000) " x="-9.5" y="59.5" width="20" height="1" rx="0.5"></rect>
                    <rect id="Rectangle" fill="#CA1836" transform="translate(10.500000, 69.500000) rotate(90.000000) translate(-10.500000, -69.500000) " x="10" y="59.5" width="1" height="20" rx="0.5"></rect>
                    <rect id="Rectangle" fill="#CA1836" x="69" y="0" width="1" height="20" rx="0.5"></rect>
                </g>
            </g>
        </g>
    </g>
</svg>