<?xml version="1.0" encoding="UTF-8"?>
<svg width="70px" height="70px" viewBox="0 0 70 70" version="1.1" xmlns="http://www.w3.org/2000/svg" xmlns:xlink="http://www.w3.org/1999/xlink">
    <!-- Generator: Sketch 56.2 (81672) - https://sketch.com -->
    <title>high-five</title>
    <desc>Created with Sketch.</desc>
    <g id="pages" stroke="none" stroke-width="1" fill="none" fill-rule="evenodd">
        <g id="aventin-main" transform="translate(-463.000000, -1125.000000)">
            <g id="advantages" transform="translate(180.000000, 970.000000)">
                <g id="2" transform="translate(283.000000, 155.000000)">
                    <g id="high-five">
                        <g transform="translate(10.000000, 10.000000)" fill="#2D42AB" fill-rule="nonzero" id="Path">
                            <path d="M41.3558594,48.3330078 C41.1742187,48.1513672 40.9231445,48.046875 40.6654297,48.046875 C40.4085937,48.046875 40.1566406,48.1513672 39.975,48.3330078 C39.793457,48.5146484 39.6888672,48.7666016 39.6888672,49.0234375 C39.6888672,49.2802734 39.7933594,49.5322266 39.975,49.7138672 C40.1566406,49.8955078 40.4085937,50 40.6654297,50 C40.9222656,50 41.1742187,49.8955078 41.3558594,49.7138672 C41.5384766,49.5322266 41.6419922,49.2802734 41.6419922,49.0234375 C41.6419922,48.7666016 41.5384766,48.5146484 41.3558594,48.3330078 Z"></path>
                            <path d="M49.3182617,16.3918945 C48.7289063,15.5318359 47.8388672,14.9585938 46.8121094,14.7775391 C45.1499023,14.4844727 43.5248047,15.3176758 42.7548828,16.7447266 L42.7548828,6.44023438 C42.7548828,4.35234375 41.0561523,2.65380859 38.9683594,2.65380859 C38.2854492,2.65380859 37.6449219,2.83642578 37.0911133,3.15400391 C36.7890625,1.36630859 35.2307617,0 33.3583984,0 C31.4860352,0 29.927832,1.36630859 29.6257813,3.15400391 C29.0719727,2.83642578 28.4314453,2.65380859 27.7485352,2.65380859 C25.7857422,2.65380859 24.1672852,4.15517578 23.9804688,6.06972656 C23.4348633,5.76464844 22.8069336,5.58994141 22.1386719,5.58994141 C20.0507812,5.58994141 18.3522461,7.28857422 18.3522461,9.37636719 C18.3522461,9.91572266 18.7895508,10.3529297 19.3288086,10.3529297 C19.8680664,10.3529297 20.3053711,9.91572266 20.3053711,9.37636719 C20.3053711,8.36542969 21.127832,7.54306641 22.1386719,7.54306641 C23.0853516,7.54306641 23.8666992,8.26445313 23.9621094,9.18642578 L23.9621094,11.7899414 C23.9621094,12.3292969 24.3994141,12.7665039 24.9386719,12.7665039 C25.4779297,12.7665039 25.9152344,12.3292969 25.9152344,11.7899414 L25.9152344,6.44033203 C25.9152344,5.42939453 26.7376953,4.60703125 27.7485352,4.60703125 C28.6952148,4.60703125 29.4765625,5.32841797 29.5719727,6.25039063 L29.5719727,13.8479492 C29.5719727,13.8927734 29.5819336,14.2173828 29.5819336,14.2173828 C29.5819336,14.7567383 30.0192383,15.1939453 30.5584961,15.1939453 C31.0977539,15.1939453 31.5350586,14.7567383 31.5350586,14.2173828 L31.5350586,6.44023438 C31.5350586,6.35283203 31.530957,6.26630859 31.5250977,6.18037109 L31.5250977,3.78642578 C31.5250977,2.77548828 32.3475586,1.953125 33.3583984,1.953125 C34.3692383,1.953125 35.1916992,2.77558594 35.1916992,3.78642578 L35.1916992,6.18037109 C35.1858398,6.26630859 35.1817383,6.35283203 35.1817383,6.44023438 L35.1817383,20.1739258 C35.1817383,20.7132813 35.619043,21.1504883 36.1583008,21.1504883 C36.6975586,21.1504883 37.1348633,20.7132813 37.1348633,20.1739258 L37.1448242,6.25019531 C37.2402344,5.32822266 38.021582,4.60683594 38.9683594,4.60683594 C39.9792969,4.60683594 40.8016602,5.42929688 40.8016602,6.44013672 L40.8016602,20.8857422 C40.8016602,21.6 41.3164063,22.1806641 42.0254883,22.2663086 C42.7339844,22.3523437 43.3726563,21.9106445 43.5428711,21.2167969 L44.3029297,18.1160156 C44.5399414,17.149707 45.4920898,16.527832 46.4728516,16.7008789 C46.9785156,16.7900391 47.4167969,17.0723633 47.7071289,17.4958984 C47.9973633,17.9194336 48.1025391,18.4301758 48.003125,18.9339844 L46.5318359,26.3952148 C46.0379883,28.899707 44.8214844,31.1761719 43.0140625,32.9786133 L39.9762695,36.0078125 C39.7924805,36.1910156 39.6892578,36.4398437 39.6892578,36.6993164 L39.6892578,45.4101562 C39.6892578,45.9495117 40.1265625,46.3867188 40.6658203,46.3867188 C41.2050781,46.3867188 41.6423828,45.9495117 41.6423828,45.4101562 L41.6423828,37.1046875 L44.3932617,34.3617187 C46.4767578,32.284082 47.8789063,29.6599609 48.4482422,26.7731445 L49.9195313,19.3119141 C50.1211914,18.2889648 49.9076172,17.2519531 49.3182617,16.3918945 Z"></path>
                            <path d="M28.9640625,30.1757812 C28.4248047,30.1757812 27.9875,30.6129883 27.9875,31.1523438 L27.9875,34.0164062 C27.9875,37.2282227 26.7349609,40.2460938 24.4605469,42.5140625 L22.6100586,44.3592773 C22.4262695,44.5424805 22.3230469,44.7913086 22.3230469,45.0507812 L22.3230469,49.0234375 C22.3230469,49.562793 22.7603516,50 23.2996094,50 C23.8388672,50 24.2761719,49.562793 24.2761719,49.0234375 L24.2761719,45.4561523 L25.8396484,43.897168 C28.4842773,41.2601563 29.9407227,37.7510742 29.9407227,34.0165039 L29.9407227,31.1523438 C29.940625,30.6129883 29.503418,30.1757812 28.9640625,30.1757812 Z"></path>
                            <path d="M29.6545898,26.9951172 C29.4729492,26.8134766 29.2209961,26.7089844 28.9641602,26.7089844 C28.7073242,26.7089844 28.4553711,26.8134766 28.2738281,26.9951172 C28.0921875,27.1767578 27.9875977,27.4287109 27.9875977,27.6855469 C27.9875977,27.9423828 28.0920898,28.1943359 28.2738281,28.3759766 C28.4553711,28.5576172 28.7073242,28.6621094 28.9641602,28.6621094 C29.2209961,28.6621094 29.4729492,28.5576172 29.6545898,28.3759766 C29.8362305,28.1943359 29.9407227,27.9423828 29.9407227,27.6855469 C29.9407227,27.4287109 29.8363281,27.1767578 29.6545898,26.9951172 Z"></path>
                            <path d="M26.3157227,15.6742187 C25.7056641,15.6742187 25.1307617,15.8263672 24.6258789,16.0936523 C24.4086914,14.3009766 22.8788086,12.9070312 21.028418,12.9070312 C20.403125,12.9070312 19.8143555,13.0662109 19.3003906,13.3461914 C18.9792969,11.6737305 17.505957,10.4058594 15.7412109,10.4058594 C13.9764648,10.4058594 12.5030273,11.6737305 12.1820312,13.3461914 C11.6680664,13.0662109 11.0791992,12.9070312 10.4539062,12.9070312 C8.45517578,12.9070312 6.82910156,14.5331055 6.82910156,16.5319336 L6.82910156,26.0341797 C6.05634766,24.780957 4.5703125,24.0667969 3.0515625,24.334375 C2.06884766,24.5076172 1.21699219,25.0564453 0.652832031,25.8795898 C0.088671875,26.7027344 -0.115625,27.6952148 0.07734375,28.6742187 L1.4640625,35.7063477 C2.00283203,38.4381836 3.3296875,40.9212891 5.30136719,42.8874023 L7.87744141,45.4561523 L7.87744141,49.0234375 C7.87744141,49.562793 8.31474609,50 8.85400391,50 C9.39326172,50 9.83056641,49.562793 9.83056641,49.0234375 L9.83056641,45.0507812 C9.83056641,44.7913086 9.72724609,44.5424805 9.54355469,44.3592773 L6.68056641,41.5042969 C4.98486328,39.8133789 3.84365234,37.677832 3.38037109,35.328418 L1.99365234,28.2962891 C1.90302734,27.8364258 1.99902344,27.3702148 2.26396484,26.9835937 C2.52900391,26.5969727 2.92919922,26.3391602 3.39072266,26.2578125 C4.28525391,26.1 5.15517578,26.6674805 5.37148437,27.5496094 L6.08789062,30.4720703 C6.25498047,31.1539062 6.88115234,31.5881836 7.57919922,31.5036133 C8.27626953,31.4194336 8.78212891,30.8487305 8.78212891,30.1466797 L8.78212891,16.5318359 C8.78212891,15.6100586 9.53212891,14.8600586 10.4539062,14.8600586 C11.3164062,14.8600586 12.0283203,15.5167969 12.1162109,16.356543 L12.1162109,23.5132812 C12.1162109,24.0526367 12.5535156,24.4898437 13.0927734,24.4898437 C13.0943359,24.4898437 13.0958984,24.4896484 13.0974609,24.4896484 C13.0990234,24.4896484 13.1005859,24.4898437 13.1021484,24.4898437 C13.6414062,24.4898437 14.0787109,24.0526367 14.0787109,23.5132812 L14.0787109,16.5317383 C14.0787109,16.4487305 14.0749023,16.3666016 14.0693359,16.2849609 L14.0693359,14.0305664 C14.0693359,13.1087891 14.8193359,12.3587891 15.7411133,12.3587891 C16.6628906,12.3587891 17.4128906,13.1086914 17.4128906,14.0305664 L17.4128906,16.2849609 C17.4073242,16.3666016 17.4035156,16.4487305 17.4035156,16.5317383 L17.4035156,23.5132812 C17.4035156,24.0526367 17.8408203,24.4898437 18.3800781,24.4898437 C18.3816406,24.4898437 18.3832031,24.4896484 18.3847656,24.4896484 C18.3863281,24.4896484 18.3878906,24.4898437 18.3894531,24.4898437 C18.9287109,24.4898437 19.3660156,24.0526367 19.3660156,23.5132812 L19.3660156,16.356543 C19.4539062,15.5167969 20.1657227,14.8600586 21.0283203,14.8600586 C21.9500977,14.8600586 22.7000977,15.6099609 22.7000977,16.5318359 L22.6908203,23.5133789 C22.6908203,24.0527344 23.128125,24.4899414 23.6673828,24.4899414 C23.6689453,24.4899414 23.6705078,24.4897461 23.6720703,24.4897461 C23.6736328,24.4897461 23.6751953,24.4899414 23.6767578,24.4899414 C24.2160156,24.4899414 24.6533203,24.0527344 24.6533203,23.5133789 L24.6533203,19.1238281 C24.7412109,18.284082 25.453125,17.6273437 26.3157227,17.6273437 C27.2375,17.6273437 27.9875,18.3772461 27.9875,19.2991211 L27.9875,23.8607422 C27.9875,24.4000977 28.4248047,24.8373047 28.9640625,24.8373047 C29.5033203,24.8373047 29.940625,24.4000977 29.940625,23.8607422 L29.940625,19.2991211 C29.940625,17.3003906 28.3145508,15.6742187 26.3157227,15.6742187 Z"></path>
                            <path d="M14.5386719,5.43779297 L9.38945312,0.288574219 C9.00810547,-0.0927734375 8.38994141,-0.0927734375 8.00830078,0.288574219 C7.62695312,0.669921875 7.62695312,1.28828125 8.00830078,1.66962891 L13.1576172,6.81884766 C13.3483398,7.00957031 13.5982422,7.10488281 13.8481445,7.10488281 C14.0980469,7.10488281 14.3479492,7.00947266 14.5386719,6.81884766 C14.9200195,6.4375 14.9200195,5.81914063 14.5386719,5.43779297 Z"></path>
                            <path d="M11.0842773,8.05478516 L8.70126953,8.05478516 C8.16201172,8.05478516 7.72470703,8.49199219 7.72470703,9.03134766 C7.72470703,9.57070313 8.16201172,10.0079102 8.70126953,10.0079102 L11.0842773,10.0079102 C11.6235352,10.0079102 12.0608398,9.57070313 12.0608398,9.03134766 C12.0608398,8.49199219 11.6235352,8.05478516 11.0842773,8.05478516 Z"></path>
                            <path d="M16.7064453,0 C16.1671875,0 15.7298828,0.437207031 15.7298828,0.9765625 L15.7298828,3.43925781 C15.7298828,3.97861328 16.1670898,4.41582031 16.7064453,4.41582031 C17.2457031,4.41582031 17.6830078,3.97861328 17.6830078,3.43925781 L17.6830078,0.9765625 C17.6830078,0.437207031 17.2457031,0 16.7064453,0 Z"></path>
                        </g>
                        <rect id="Rectangle" fill="#CA1836" x="50" y="0" width="20" height="1" rx="0.5"></rect>
                        <rect id="Rectangle" fill="#CA1836" transform="translate(0.500000, 60.000000) rotate(90.000000) translate(-0.500000, -60.000000) " x="-9.5" y="59.5" width="20" height="1" rx="0.5"></rect>
                        <rect id="Rectangle" fill="#CA1836" transform="translate(10.500000, 69.500000) rotate(90.000000) translate(-10.500000, -69.500000) " x="10" y="59.5" width="1" height="20" rx="0.5"></rect>
                        <rect id="Rectangle" fill="#CA1836" x="69" y="0" width="1" height="20" rx="0.5"></rect>
                    </g>
                </g>
            </g>
        </g>
    </g>
</svg>