<?xml version="1.0" encoding="UTF-8"?>
<svg width="70px" height="70px" viewBox="0 0 70 70" version="1.1" xmlns="http://www.w3.org/2000/svg" xmlns:xlink="http://www.w3.org/1999/xlink">
    <!-- Generator: Sketch 56.2 (81672) - https://sketch.com -->
    <title>innovation</title>
    <desc>Created with Sketch.</desc>
    <g id="pages" stroke="none" stroke-width="1" fill="none" fill-rule="evenodd">
        <g id="aventin-main" transform="translate(-747.000000, -1125.000000)">
            <g id="advantages" transform="translate(180.000000, 970.000000)">
                <g id="3" transform="translate(567.000000, 155.000000)">
                    <g id="innovation">
                        <g transform="translate(10.000000, 10.000000)" fill="#2D42AB" fill-rule="nonzero">
                            <path d="M49.1993789,13.1059006 C49.1992754,13.1059006 49.1992754,13.1059006 49.1991718,13.1059006 L49.1975155,13.1042443 L45.9759834,12.644617 C45.5231884,12.5801242 45.2083851,12.160766 45.2728778,11.707971 C45.3038302,11.4903727 45.4200828,11.2940994 45.5958592,11.1622153 L48.1995859,9.20942029 C48.565528,8.93498965 48.639648,8.41594203 48.3652174,8.05 L45.3838509,4.07484472 C45.1094203,3.70890269 44.5903727,3.63478261 44.2244306,3.90921325 L41.6215321,5.86200828 C41.2571429,6.13850932 40.7376812,6.06728778 40.4611801,5.70289855 C40.3269151,5.52598344 40.2693582,5.30248447 40.3014493,5.08271222 L40.7619048,1.86118012 C40.8268116,1.40838509 40.5124224,0.988819876 40.0597308,0.923809524 C40.0594203,0.923809524 40.0591097,0.923706004 40.0587992,0.923706004 L35.1428571,0.221428571 C34.6901656,0.156418219 34.2703934,0.470703934 34.205383,0.923498965 C34.205383,0.923602484 34.205383,0.923602484 34.205383,0.923706004 L33.7449275,4.1452381 C33.6804348,4.59803313 33.2610766,4.91283644 32.8082816,4.84834369 C32.5906832,4.8173913 32.3944099,4.70113872 32.2625259,4.52536232 L30.310559,1.92163561 C30.0361284,1.55569358 29.5170807,1.4815735 29.1511387,1.75600414 L26.6625259,3.62349896 C25.536646,3.50383023 24.4012422,3.50383023 23.2753623,3.62349896 C15.9020704,4.46625259 10.1199793,10.3463768 9.40124224,17.7328157 C9.37888199,17.9671843 9.37060041,18.1998965 9.35900621,18.4326087 L9.11055901,18.4326087 C8.71759834,18.4333333 8.37919255,18.7101449 8.30062112,19.0951346 L7.72836439,21.8164596 L5.43602484,20.2355072 C5.10703934,20.0084886 4.66273292,20.0489648 4.38012422,20.3315735 L1.89565217,22.8160455 C1.61345756,23.0985507 1.57308489,23.542236 1.79958592,23.871118 L3.37308489,26.1593168 L0.650931677,26.7315735 C0.270186335,26.8150104 -0.00082815735,27.152588 -1.89278358e-06,27.5423395 L-1.89278358e-06,30.8549689 C-1.89278358e-06,31.2466874 0.274223602,31.5849896 0.657556936,31.665735 L3.37971014,32.2379917 L1.80621118,34.5261905 C1.57971014,34.8550725 1.62008282,35.2987578 1.90227743,35.5812629 L4.38674948,38.065735 C4.66935818,38.3483437 5.1136646,38.3888199 5.4426501,38.1618012 L7.73084886,36.5841615 L8.30310559,39.3063147 C8.38167702,39.6913043 8.72008282,39.9681159 9.11304348,39.9688406 L12.4256729,39.9688406 C12.8173913,39.9690476 13.1556936,39.694617 13.2364389,39.3112836 L13.8086957,36.5891304 L16.0968944,38.1626294 C16.4257764,38.3891304 16.8694617,38.3487578 17.1519669,38.0665631 L18.4380952,36.776294 L18.4380952,39.1365424 C18.4418219,40.3146998 19.0729814,41.4015528 20.0944099,41.9887164 L20.0944099,46.5899586 C20.0944099,48.4194617 21.5775362,49.902588 23.4070393,49.902588 L26.7196687,49.902588 C28.5491718,49.902588 30.0322981,48.4194617 30.0322981,46.5899586 L30.0322981,41.9887164 C31.0537267,41.4015528 31.6848861,40.3146998 31.6886128,39.1365424 L31.6886128,35.8586957 C31.7110766,34.4795031 32.4326087,33.2062112 33.6041408,32.4781573 C34.2914079,32.0322981 34.9431677,31.5338509 35.5536232,30.9874741 L34.4488613,29.7535197 C33.902795,30.2429607 33.3193582,30.6890269 32.7039337,31.0876812 C31.0595238,32.1197723 30.0528986,33.9172878 30.0322981,35.8586957 L30.0322981,39.1365424 C30.0322981,40.0513458 29.2907867,40.7928571 28.3759834,40.7928571 L21.7507246,40.7928571 C20.8359213,40.7928571 20.0944099,40.0513458 20.0944099,39.1365424 L20.0944099,35.7899586 C20.0752588,33.8853002 19.084472,32.1224638 17.4674948,31.1158385 C10.9036232,26.9914079 8.92598344,18.3269151 13.0504141,11.7630435 C15.6094203,7.69047619 20.0754658,5.21169772 24.8853002,5.19451346 C24.8729814,5.22401656 24.8621118,5.25414079 24.8530021,5.28478261 C24.8222567,5.50217391 24.8791925,5.72298137 25.0111801,5.8984472 L26.963147,8.50134576 C27.1689441,8.76770186 27.1887164,9.13354037 27.0128364,9.42060041 C26.8434783,9.70942029 26.5160455,9.86697723 26.1846791,9.8189441 L22.963147,9.35848861 C22.510352,9.29358178 22.0907867,9.60797101 22.0257764,10.0606625 C22.0257764,10.0609731 22.0256729,10.0612836 22.0256729,10.0615942 L21.3225673,14.9800207 C21.2576605,15.4327122 21.5720497,15.852381 22.0247412,15.9173913 C22.0250518,15.9173913 22.0253623,15.9174948 22.0256729,15.9174948 L25.247205,16.3779503 C25.7,16.4424431 26.0148033,16.8618012 25.9503106,17.3145963 C25.9193582,17.5321946 25.8031056,17.7284679 25.6273292,17.860352 L23.0244306,19.8123188 C22.6584886,20.0867495 22.5843685,20.6057971 22.8587992,20.9717391 L25.8401656,24.9468944 C26.1145963,25.3128364 26.6336439,25.3869565 26.9995859,25.1125259 L29.6033126,23.160559 C29.9695652,22.886646 30.4886128,22.9614907 30.7625259,23.3278468 C30.8935818,23.5031056 30.95,23.7231884 30.9192547,23.9398551 L30.4596273,27.1613872 C30.394617,27.6140787 30.7089027,28.0338509 31.1616977,28.0988613 C31.1618012,28.0988613 31.1618012,28.0988613 31.1619048,28.0988613 L36.0811594,28.8019669 C36.1198758,28.8069358 36.1589027,28.8094203 36.1979296,28.8094203 C36.6102484,28.8099379 36.9600414,28.5070393 37.0186335,28.0988613 L37.4782609,24.8773292 C37.5427536,24.4245342 37.9621118,24.1097308 38.4149068,24.1742236 C38.6325052,24.205176 38.8287785,24.3214286 38.9606625,24.497205 L40.9134576,27.1001035 C41.1878882,27.4660455 41.7069358,27.5401656 42.0728778,27.265735 L46.0480331,24.2843685 C46.4139752,24.0099379 46.4880952,23.4908903 46.2136646,23.1249482 L44.2616977,20.5220497 C44.0568323,20.2552795 44.03706,19.8900621 44.2120083,19.602795 C44.3777433,19.3101449 44.7081781,19.1515528 45.0401656,19.2052795 L48.2616977,19.6649068 C48.7143892,19.7299172 49.1341615,19.415528 49.1991718,18.9628364 C49.1991718,18.9627329 49.1991718,18.9627329 49.1991718,18.9626294 L49.9014493,14.0433747 C49.9664596,13.5905797 49.6521739,13.170911 49.1993789,13.1059006 Z M21.7507246,42.4491718 L28.3759834,42.4491718 L28.3759834,44.1054865 L21.7507246,44.1054865 L21.7507246,42.4491718 L21.7507246,42.4491718 Z M21.7507246,45.7618012 L28.3759834,45.7618012 L28.3759834,46.5899586 C28.3759834,47.5047619 27.634472,48.2462733 26.7196687,48.2462733 L23.4070393,48.2462733 C22.492236,48.2462733 21.7507246,47.5047619 21.7507246,46.5899586 L21.7507246,45.7618012 L21.7507246,45.7618012 Z M15.157764,31.4802277 C15.6099379,31.85 16.0824017,32.1943064 16.5730849,32.5112836 C17.3555901,33.0057971 17.944617,33.7539337 18.2418219,34.6305383 L16.4654244,36.4036232 L14.7453416,35.2177019 C13.9921325,34.6986542 12.960766,34.8885093 12.4416149,35.6417184 C12.3171843,35.8223602 12.2298137,36.0258799 12.1846791,36.2404762 L11.7507246,38.3083851 L9.78219462,38.3083851 L9.34824017,36.2437888 C9.15983437,35.3486542 8.28146998,34.7756729 7.3863354,34.9640787 C7.17173913,35.0092133 6.96821946,35.0965839 6.78757764,35.2210145 L5.06666667,36.4036232 L3.55776398,34.8980331 L4.74285714,33.1787785 C5.26242236,32.4258799 5.07318841,31.3944099 4.32028986,30.8748447 C4.13954451,30.7501035 3.93581781,30.6625259 3.72091097,30.6172878 L1.6563147,30.1825052 L1.6563147,28.2148033 L3.72091097,27.7800207 C4.61573499,27.5902692 5.1873706,26.7110766 4.99761905,25.8161491 C4.95258799,25.6038302 4.86635611,25.4024845 4.7436853,25.223499 L3.55776398,23.4992754 L5.06666667,21.9936853 L6.7884058,23.1796066 C7.54192547,23.6981366 8.57329193,23.5076605 9.09182195,22.7541408 C9.21604555,22.573706 9.30320911,22.3703934 9.34824017,22.1560041 L9.4931677,21.4669772 C9.62587992,22.4212215 9.84565217,23.3611801 10.1498965,24.2752588 C7.42494824,24.6001035 5.47929607,27.0725673 5.80414079,29.7975155 C6.12898551,32.5224638 8.60144928,34.4681159 11.3263975,34.1432712 C12.9667702,33.947619 14.4026915,32.9495859 15.157764,31.4802277 Z M13.8716356,30.313354 C13.2532091,32.0322981 11.3584886,32.9244306 9.63954451,32.3061077 C7.92060041,31.6876812 7.02846791,29.7929607 7.64679089,28.0740166 C8.11987578,26.7590062 9.3684265,25.8831263 10.765942,25.8860177 C10.7767081,25.8860177 10.786646,25.8860177 10.797412,25.8860177 C11.5590062,27.5281573 12.5990683,29.0259834 13.8716356,30.313354 Z M47.6720497,17.9059006 L45.2703934,17.5630435 C43.9120083,17.3690476 42.6536232,18.3130435 42.4596273,19.6713251 C42.3664596,20.3236025 42.5362319,20.9862319 42.931677,21.513354 L44.3867495,23.4537267 L41.736646,25.4413043 L40.2807453,23.5017598 C39.4575569,22.4039337 37.9003106,22.1812629 36.802588,23.0044513 C36.2754658,23.3996894 35.9269151,23.9881988 35.8335404,24.6404762 L35.4981366,27.0454451 L32.2194617,26.5767081 L32.5623188,24.1750518 C32.7568323,22.8167702 31.813354,21.557971 30.4550725,21.3635611 C29.802381,21.2700828 29.139441,21.4398551 28.6120083,21.8355072 L26.6716356,23.2905797 L24.684058,20.6404762 L26.6236025,19.1845756 C27.7214286,18.3613872 27.9440994,16.8041408 27.120911,15.7064182 C26.7256729,15.1792961 26.1371636,14.8307453 25.4848861,14.7373706 L23.0832298,14.3945135 L23.5519669,11.1158385 L25.9536232,11.4586957 C27.3119048,11.6532091 28.5707039,10.7097308 28.7651139,9.35144928 C28.8585921,8.69875776 28.6888199,8.03581781 28.2931677,7.50838509 L26.8331263,5.56635611 L29.4832298,3.57877847 L30.9391304,5.51915114 C31.7623188,6.61697723 33.3195652,6.83964803 34.4172878,6.01645963 C34.9444099,5.62122153 35.2929607,5.03271222 35.3863354,4.38043478 L35.7291925,1.97877847 L39.0078675,2.44668737 L38.6650104,4.84834369 C38.4710145,6.20672878 39.4149068,7.46511387 40.7732919,7.65910973 C41.4255694,7.75227743 42.0881988,7.58250518 42.6153209,7.18706004 L44.5556936,5.73198758 L46.5432712,8.3820911 L44.6028986,9.83799172 C43.5050725,10.6611801 43.2824017,12.2184265 44.1055901,13.3161491 C44.5008282,13.8432712 45.0893375,14.1918219 45.7416149,14.2851967 L48.1432712,14.6280538 L47.6720497,17.9059006 Z" id="Shape"></path>
                            <path d="M35.610766,7.88519669 C31.9517598,7.88519669 28.9855072,10.8514493 28.9855072,14.5104555 C28.9855072,18.1694617 31.9517598,21.1357143 35.610766,21.1357143 C39.2697723,21.1357143 42.2360248,18.1694617 42.2360248,14.5104555 C42.2318841,10.8531056 39.2681159,7.88923395 35.610766,7.88519669 Z M35.610766,19.4793996 C32.8664596,19.4793996 30.6418219,17.2547619 30.6418219,14.5104555 C30.6418219,11.7661491 32.8664596,9.54151139 35.610766,9.54151139 C38.3550725,9.54151139 40.5797101,11.7661491 40.5797101,14.5104555 C40.576501,17.2534161 38.3537267,19.4761905 35.610766,19.4793996 Z" id="Shape"></path>
                            <rect id="Rectangle" x="24.2351967" y="36.6520704" width="1.6563147" height="2.48447205"></rect>
                            <path d="M21.4409938,28.5187371 C16.3286749,26.5216356 13.8033126,20.7582816 15.8005176,15.6459627 C16.5744306,13.6650104 17.963354,11.9845756 19.763147,10.8516563 L18.8778468,9.45041408 C13.4600414,12.8635611 11.8348861,20.0224638 15.2480331,25.4402692 C16.5698758,27.5385093 18.5297101,29.1576605 20.8397516,30.0599379 C22.884472,30.8433747 24.2346791,32.8061077 24.2351967,34.9957557 L25.8915142,34.9957557 C25.8940994,32.1228778 24.123706,29.5463768 21.4409938,28.5187371 Z" id="Path"></path>
                            <rect id="Rectangle" x="40.7983437" y="30.8549689" width="5.79710145" height="1.6563147"></rect>
                            <polygon id="Rectangle" transform="translate(42.454976, 37.893413) rotate(-50.201031) translate(-42.454976, -37.893413) " points="41.6268131 34.6594376 43.2831385 34.6594376 43.2831385 41.1273882 41.6268131 41.1273882"></polygon>
                            <rect id="Rectangle" x="35.8293996" y="37.4802277" width="1.6563147" height="5.79710145"></rect>
                            <polygon id="Rectangle" transform="translate(4.358783, 14.290800) rotate(-14.034854) translate(-4.358783, -14.290800) " points="0.944460782 13.4630977 7.77310572 13.4630977 7.77310572 15.1185017 0.944460782 15.1185017"></polygon>
                            <polygon id="Rectangle" transform="translate(5.600743, 7.252972) rotate(-54.462988) translate(-5.600743, -7.252972) " points="4.77304081 3.69124359 6.42844551 3.69124359 6.42844551 10.8147009 4.77304081 10.8147009"></polygon>
                            <polygon id="Rectangle" transform="translate(10.966296, 3.524414) rotate(-14.341974) translate(-10.966296, -3.524414) " points="10.1381677 0.105487782 11.7944234 0.105487782 11.7944234 6.94333934 10.1381677 6.94333934"></polygon>
                        </g>
                        <rect id="Rectangle" fill="#CA1836" x="50" y="0" width="20" height="1" rx="0.5"></rect>
                        <rect id="Rectangle" fill="#CA1836" transform="translate(0.500000, 60.000000) rotate(90.000000) translate(-0.500000, -60.000000) " x="-9.5" y="59.5" width="20" height="1" rx="0.5"></rect>
                        <rect id="Rectangle" fill="#CA1836" transform="translate(10.500000, 69.500000) rotate(90.000000) translate(-10.500000, -69.500000) " x="10" y="59.5" width="1" height="20" rx="0.5"></rect>
                        <rect id="Rectangle" fill="#CA1836" x="69" y="0" width="1" height="20" rx="0.5"></rect>
                    </g>
                </g>
            </g>
        </g>
    </g>
</svg>