<?xml version="1.0" encoding="UTF-8"?>
<svg width="30px" height="15px" viewBox="0 0 30 15" version="1.1" xmlns="http://www.w3.org/2000/svg" xmlns:xlink="http://www.w3.org/1999/xlink">
    <!-- Generator: Sketch 56.2 (81672) - https://sketch.com -->
    <title>menu</title>
    <desc>Created with Sketch.</desc>
    <g id="pages" stroke="none" stroke-width="1" fill="none" fill-rule="evenodd">
        <g id="aventin-main" transform="translate(-35.000000, -33.000000)" fill="#FFFFFF" fill-rule="nonzero">
            <g id="main">
                <g id="header">
                    <g id="menu" transform="translate(35.000000, 33.000000)">
                        <path d="M0.934974093,1.8888342 L28.9848964,1.8888342 C29.5010363,1.8888342 29.9198705,1.46992228 29.9198705,0.953860104 C29.9198705,0.437720207 29.5009585,0.0188860104 28.9848964,0.0188860104 L0.934974093,0.0188860104 C0.418834197,0.0188860104 0,0.437797927 0,0.953860104 C0,1.46992228 0.418911917,1.8888342 0.934974093,1.8888342 Z" id="Path"></path>
                        <path d="M28.9848964,6.5638601 L0.934974093,6.5638601 C0.418834197,6.5638601 0,6.98277202 0,7.4988342 C0,8.01489637 0.418911917,8.43380829 0.934974093,8.43380829 L28.9848964,8.43380829 C29.5010363,8.43380829 29.9198705,8.01489637 29.9198705,7.4988342 C29.9198705,6.98277202 29.5010363,6.5638601 28.9848964,6.5638601 Z" id="Path"></path>
                        <path d="M28.9848964,13.1088342 L10.2849482,13.1088342 C9.76880829,13.1088342 9.34997409,13.5277461 9.34997409,14.0438083 C9.34997409,14.5599482 9.76888601,14.9787824 10.2849482,14.9787824 L28.9848964,14.9787824 C29.5010363,14.9787824 29.9198705,14.5598705 29.9198705,14.0438083 C29.9198705,13.5276684 29.5010363,13.1088342 28.9848964,13.1088342 Z" id="Path"></path>
                    </g>
                </g>
            </g>
        </g>
    </g>
</svg>