<?xml version="1.0" encoding="UTF-8"?>
<svg width="70px" height="70px" viewBox="0 0 70 70" version="1.1" xmlns="http://www.w3.org/2000/svg" xmlns:xlink="http://www.w3.org/1999/xlink">
    <!-- Generator: Sketch 56.2 (81672) - https://sketch.com -->
    <title>mission</title>
    <desc>Created with Sketch.</desc>
    <g id="pages" stroke="none" stroke-width="1" fill="none" fill-rule="evenodd">
        <g id="aventin-about" transform="translate(-180.000000, -394.000000)">
            <g id="mission" transform="translate(180.000000, 335.000000)">
                <g transform="translate(0.000000, 59.000000)">
                    <g id="box" transform="translate(10.000000, 10.000000)" fill="#2D42AB" fill-rule="nonzero">
                        <path d="M45.9543945,35.2379883 C45.7638672,34.721875 45.1912109,34.4579102 44.6750977,34.6483398 L34.3165039,38.4705078 C33.8003906,38.6609375 33.5364258,39.2336914 33.7268555,39.7498047 C33.8753906,40.1521484 34.2561523,40.4012695 34.6614258,40.4012695 C34.7758789,40.4012695 34.8923828,40.3813477 35.0061523,40.3394531 L45.3647461,36.5172852 C45.8808594,36.3268555 46.1448242,35.7541016 45.9543945,35.2379883 Z" id="Path"></path>
                        <path d="M32.7477539,40.1111328 C32.5574219,39.5949219 31.9845703,39.330957 31.468457,39.5213867 L31.0297852,39.6832031 C30.5137695,39.8736328 30.249707,40.4463867 30.4401367,40.9624023 C30.5885742,41.3647461 30.9694336,41.6139648 31.374707,41.6139648 C31.4891602,41.6139648 31.6056641,41.594043 31.7194336,41.5521484 L32.1581055,41.390332 C32.6741211,41.1999023 32.9381836,40.6272461 32.7477539,40.1111328 Z" id="Path"></path>
                        <path d="M45.9543945,31.1792969 C45.7638672,30.6631836 45.1912109,30.3994141 44.6750977,30.5896484 L36.4890625,33.6101563 C35.9729492,33.8005859 35.7089844,34.3733398 35.8994141,34.8894531 C36.0479492,35.2917969 36.4287109,35.540918 36.8339844,35.540918 C36.9484375,35.540918 37.0649414,35.5209961 37.1787109,35.4791016 L45.3647461,32.4585938 C45.8808594,32.2681641 46.1448242,31.6954102 45.9543945,31.1792969 Z" id="Path"></path>
                        <path d="M45.9543945,27.162793 C45.7638672,26.6466797 45.1912109,26.3829102 44.6750977,26.5731445 L36.4890625,29.5936523 C35.9729492,29.784082 35.7089844,30.3568359 35.8994141,30.8729492 C36.0479492,31.275293 36.4287109,31.5244141 36.8339844,31.5244141 C36.9484375,31.5244141 37.0649414,31.5044922 37.1787109,31.4625977 L45.3647461,28.4420898 C45.8808594,28.2516602 46.1448242,27.6789063 45.9543945,27.162793 Z" id="Path"></path>
                        <path d="M49.3488281,8.93828125 L25.3448242,0.08125 C25.1222656,-0.00078125 24.8777344,-0.00078125 24.6552734,0.08125 L0.651269531,8.93828125 L0.651074219,8.9390625 C0.572460938,8.96816406 0.496875,9.00664063 0.4265625,9.05556641 C0.159277344,9.24189453 0,9.54707031 0,9.87275391 L0,38.3694336 C0,38.7865234 0.259863281,39.1594727 0.651171875,39.3039063 L24.6551758,48.1609375 C24.7670898,48.2022461 24.8837891,48.2224609 24.9999023,48.2224609 C25.1171875,48.2224609 25.2338867,48.2011719 25.3444336,48.1603516 L25.3448242,48.1609375 L49.3488281,39.3039063 C49.7401367,39.1594727 50,38.7866211 50,38.3694336 L50,9.87275391 C50,9.45556641 49.7401367,9.08271484 49.3488281,8.93828125 Z M24.0040039,45.7973633 L1.99199219,37.675293 L1.99199219,11.3019531 L6.47402344,12.9558594 L6.47402344,25.0240234 C6.47402344,25.4411133 6.73388672,25.8140625 7.12519531,25.9584961 L17.8821289,29.9277344 C17.994043,29.969043 18.1107422,29.9892578 18.2268555,29.9892578 C18.427832,29.9892578 18.6270508,29.928418 18.7964844,29.8103516 C19.0636719,29.6241211 19.2229492,29.3189453 19.2229492,28.9932617 L19.2229492,17.6599609 L24.0040039,19.4240234 L24.0040039,45.7973633 L24.0040039,45.7973633 Z M17.2310547,16.9249023 L17.2310547,27.5638672 L8.46611328,24.3296875 L8.46611328,13.6907227 L17.2310547,16.9249023 Z M10.3473633,12.2536133 L18.2270508,9.34609375 L26.1067383,12.2536133 L18.2270508,15.1611328 L10.3473633,12.2536133 Z M25,17.6681641 L21.0936523,16.2267578 L29.3289062,13.1879883 C29.7202148,13.0435547 29.9800781,12.6707031 29.9800781,12.2535156 C29.9800781,11.8363281 29.7202148,11.4634766 29.3289062,11.319043 L18.571875,7.34990234 C18.3493164,7.26787109 18.1048828,7.26787109 17.8822266,7.34990234 L7.45927734,11.1959961 L3.87333984,9.87275391 L25,2.07744141 L46.1266602,9.87285156 L25,17.6681641 Z M48.0080078,37.675293 L25.9960938,45.7972656 L25.9960938,19.4240234 L48.0080078,11.3019531 L48.0080078,37.675293 Z" id="Shape"></path>
                    </g>
                    <rect id="Rectangle" fill="#CA1836" x="50" y="0" width="20" height="1" rx="0.5"></rect>
                    <rect id="Rectangle" fill="#CA1836" transform="translate(0.500000, 60.000000) rotate(90.000000) translate(-0.500000, -60.000000) " x="-9.5" y="59.5" width="20" height="1" rx="0.5"></rect>
                    <rect id="Rectangle" fill="#CA1836" transform="translate(10.500000, 69.500000) rotate(90.000000) translate(-10.500000, -69.500000) " x="10" y="59.5" width="1" height="20" rx="0.5"></rect>
                    <rect id="Rectangle" fill="#CA1836" x="69" y="0" width="1" height="20" rx="0.5"></rect>
                </g>
            </g>
        </g>
    </g>
</svg>