<?xml version="1.0" encoding="UTF-8"?>
<svg width="20px" height="27px" viewBox="0 0 20 27" version="1.1" xmlns="http://www.w3.org/2000/svg" xmlns:xlink="http://www.w3.org/1999/xlink">
    <!-- Generator: Sketch 56.2 (81672) - https://sketch.com -->
    <title>pin</title>
    <desc>Created with Sketch.</desc>
    <g id="pages" stroke="none" stroke-width="1" fill="none" fill-rule="evenodd">
        <g id="aventin-contacts" transform="translate(-1130.000000, -367.000000)" fill="#FFFFFF" fill-rule="nonzero">
            <g id="location-active" transform="translate(1110.000000, 350.000000)">
                <g id="pin" transform="translate(20.000000, 17.000000)">
                    <path d="M9.80859375,5.68434189e-14 C4.41676758,5.68434189e-14 0.0302167969,4.38655078 0.0302167969,9.77832422 C0.0302167969,16.4696836 8.78090625,26.2929902 9.15347461,26.7079043 C9.50341992,27.0976641 10.1144004,27.0969785 10.4637129,26.7079043 C10.8362812,26.2929902 19.5869707,16.4696836 19.5869707,9.77832422 C19.5869707,4.38655078 15.2003672,5.68434189e-14 9.80859375,5.68434189e-14 Z M9.80859375,14.6980723 C7.09583203,14.6980723 4.88889844,12.4910859 4.88889844,9.77832422 C4.88889844,7.0655625 7.09588477,4.85862891 9.80859375,4.85862891 C12.5213027,4.85862891 14.7282363,7.06561523 14.7282363,9.77837695 C14.7282363,12.4911387 12.5213027,14.6980723 9.80859375,14.6980723 Z" id="Shape"></path>
                </g>
            </g>
        </g>
    </g>
</svg>