<?xml version="1.0" encoding="UTF-8"?>
<svg width="70px" height="70px" viewBox="0 0 70 70" version="1.1" xmlns="http://www.w3.org/2000/svg" xmlns:xlink="http://www.w3.org/1999/xlink">
    <!-- Generator: Sketch 56.2 (81672) - https://sketch.com -->
    <title>promotion</title>
    <desc>Created with Sketch.</desc>
    <g id="pages" stroke="none" stroke-width="1" fill="none" fill-rule="evenodd">
        <g id="aventin-career" transform="translate(-180.000000, -593.000000)">
            <g id="values" transform="translate(180.000000, 524.000000)">
                <g id="1" transform="translate(0.000000, 69.000000)">
                    <g id="promotion">
                        <g transform="translate(10.000000, 10.000000)" fill="#2D42AB" fill-rule="nonzero">
                            <path d="M49.6166667,20.9900585 C49.3859649,20.7594542 49.0546784,20.6595517 48.7351852,20.7237817 L40.3351852,22.4143275 C39.9830409,22.4852827 39.6983431,22.744152 39.5944444,23.0879142 C39.4905458,23.4317739 39.5842105,23.8049708 39.8382066,24.0590643 L40.9746589,25.1955166 L36.514425,29.6557505 L33.0615984,26.202924 C32.8787524,26.0201754 32.6308967,25.9174464 32.3724172,25.9174464 C32.1139376,25.9174464 31.8660819,26.0201754 31.6832359,26.202924 L27.4463938,30.4398635 L29.0356725,24.7293372 C29.4220273,23.3411306 29.1436647,21.8869396 28.2720273,20.7394737 C27.7381092,20.0367446 27.0332359,19.518616 26.2363548,19.2217349 L27.5068226,15.5924951 C27.8574074,15.6232943 28.207115,15.6389864 28.5528265,15.6389864 C31.3672515,15.6389864 34.111306,14.6469786 36.2796296,12.8459064 L36.5118908,12.6530214 C37.6550682,11.7032164 37.8503899,10.0526316 36.9568226,8.89551657 C36.5037037,8.30867446 35.8489279,7.94064327 35.1130604,7.85935673 C34.3769006,7.77797271 33.6576023,7.99395712 33.0880117,8.467154 L32.8241715,8.68635478 C32.4353801,9.00925926 32.0102339,9.28810916 31.5605263,9.51491228 C30.0576023,10.2730019 28.1807992,9.93538012 26.9337232,8.70116959 C28.7477583,8.13927875 30.0692008,6.44590643 30.0692008,4.44961014 C30.0692982,1.99610136 28.0730994,0 25.6194932,0 C23.1657895,0 21.1696881,1.99610136 21.1696881,4.4497076 C21.1696881,5.42612086 21.4865497,6.3294347 22.0217349,7.06393762 C21.0094542,7.28187135 20.0984405,7.80380117 19.4013645,8.5417154 C19.3607212,8.57738791 19.3217349,8.61598441 19.2864522,8.65945419 C17.5682261,10.7699805 15.2775828,12.2838207 12.6622807,13.0371345 C11.954191,13.2412281 11.3937622,13.7114035 11.0574074,14.3075049 L9.05974659,12.3098441 C8.18567251,11.4358674 6.76364522,11.4359649 5.88947368,12.3098441 L3.2751462,14.924269 L3.2751462,14.924269 L3.2751462,14.924269 L0.660818713,17.5385965 C0.237329435,17.9619883 0.00419103314,18.5248538 0.00419103314,19.1237817 C0.00419103314,19.7226121 0.237426901,20.2854776 0.660721248,20.7089669 L7.86393762,27.9121832 C8.2874269,28.335575 8.8502924,28.5687135 9.44912281,28.5687135 C10.0480507,28.5687135 10.6109162,28.3354776 11.034308,27.9121832 L13.7412281,25.2052632 L12.4576998,28.5709552 C12.2658869,29.0738791 12.5181287,29.6371345 13.0210526,29.8289474 C13.1353801,29.8725146 13.252729,29.8931774 13.3682261,29.8931774 C13.7608187,29.8931774 14.1308967,29.654191 14.2791423,29.2655945 L17.4758285,20.8834308 L23.5781676,20.8834308 L24.6330409,20.8834308 C25.4594542,20.8834308 26.2199805,21.2608187 26.719883,21.9188109 C27.2197856,22.5768031 27.3794347,23.4107212 27.1577973,24.2067251 L24.9430799,32.164425 C24.8434698,32.5225146 24.51423,32.7726121 24.1424951,32.7726121 C23.8089669,32.7726121 23.6033138,32.589961 23.5104288,32.4810916 C23.4175439,32.3722222 23.2693957,32.1403509 23.3217349,31.8111111 L24.5001949,24.4025341 C24.5450292,24.1207602 24.4641326,23.8336257 24.2789474,23.6166667 C24.0937622,23.3997076 23.822807,23.2747563 23.5376218,23.2747563 L21.2269006,23.2747563 C20.8593567,23.2747563 20.5230019,23.4814815 20.357115,23.8094542 C20.3001949,23.9219298 14.6451267,35.1033138 12.7394737,38.8814815 C12.5487329,39.2598441 12.1340156,39.475731 11.7087719,39.4175439 L11.6625731,39.411306 C11.3724172,39.3721248 11.1203704,39.2052632 10.9707602,38.9535088 C10.8211501,38.7017544 10.7953216,38.4004873 10.8997076,38.1269981 L11.5002924,36.5522417 C11.6921053,36.0493177 11.4398635,35.4861598 10.9369396,35.2942495 C10.4341131,35.1024366 9.8708577,35.3547758 9.67894737,35.8576023 L9.07836257,37.4323587 C8.76072125,38.2653021 8.83966862,39.1825536 9.29493177,39.9490253 C9.75019493,40.7153996 10.5179337,41.2235867 11.4005848,41.3430799 L11.4467836,41.3492203 C11.5804094,41.3674464 11.7135478,41.3761209 11.845809,41.3761209 C12.9493177,41.3761209 13.9756335,40.7595517 14.4800195,39.7593567 C16.1445419,36.4591618 20.6714425,27.5073099 21.8262183,25.2240741 L22.3957115,25.2240741 L21.3966862,31.5048733 C21.2687135,32.3096491 21.4987329,33.1268031 22.0278752,33.7465887 C22.3682261,34.1453216 22.8089669,34.4339181 23.2968811,34.5895712 L12.4394737,45.4469786 C12.2567251,45.6298246 12.1539961,45.8776803 12.1539961,46.1361598 C12.1539961,46.3946394 12.2567251,46.6425926 12.4394737,46.8253411 L15.2350877,49.6208577 C15.4254386,49.8111111 15.6748538,49.9063353 15.924269,49.9063353 C16.1736842,49.9063353 16.4230994,49.8111111 16.6134503,49.6208577 L21.9878168,44.2464912 C22.3684211,43.8658869 22.3684211,43.2487329 21.9878168,42.8680312 C21.607115,42.4875244 20.9901559,42.4875244 20.6093567,42.8680312 L15.924269,47.5532164 L14.507115,46.1360624 L32.3726121,28.2703704 L35.8254386,31.7231969 C36.0082846,31.9059454 36.2561404,32.0086745 36.5146199,32.0086745 C36.7730994,32.0086745 37.0209552,31.9059454 37.2038012,31.7231969 L43.0423002,25.8846004 C43.4229045,25.5039961 43.4229045,24.8868421 43.0423002,24.5061404 L42.5025341,23.9663743 L47.6827485,22.9238791 L46.6402534,28.1040936 L45.8380117,27.3018519 C45.4573099,26.921345 44.8403509,26.921345 44.4595517,27.3018519 L36.5145224,35.2468811 L33.0616959,31.7940546 C32.6809942,31.4135478 32.0640351,31.4135478 31.6832359,31.7940546 L26.1227096,37.3545809 C25.7421053,37.7351852 25.7421053,38.3523392 26.1227096,38.7330409 C26.5034113,39.1135478 27.1203704,39.1135478 27.5011696,38.7330409 L32.3724172,33.8617934 L35.8252437,37.3146199 C36.2059454,37.6951267 36.8229045,37.6951267 37.2037037,37.3146199 L45.1487329,29.3695906 L46.5477583,30.768616 C46.8017544,31.0226121 47.1751462,31.1164717 47.5188109,31.0123782 C47.8626706,30.908577 48.1216374,30.6238791 48.1924951,30.2716374 L49.8830409,21.87154 C49.9473684,21.5517544 49.8473684,21.2208577 49.6166667,20.9900585 Z M25.6194932,1.94931774 C26.9982456,1.94931774 28.119883,3.07105263 28.119883,4.4497076 C28.119883,5.82846004 26.9981481,6.95019493 25.6194932,6.95019493 C24.2407407,6.95019493 23.1190058,5.82846004 23.1190058,4.4497076 C23.1190058,3.07105263 24.2407407,1.94931774 25.6194932,1.94931774 Z M15.9750487,19.2251462 L14.7888889,18.0389864 C15.3522417,17.8551657 15.9055556,17.6449318 16.447271,17.4097466 L15.9750487,19.2251462 Z M12.6856725,15.8442495 C12.5704678,15.4444444 12.8021442,15.0255361 13.2019493,14.9103314 C14.804191,14.4487329 16.2986355,13.7360624 17.6450292,12.8053606 L17.0946394,14.921345 C15.9989279,15.5268031 14.8323587,16.0110136 13.6192982,16.3604288 C13.5967836,16.3668616 13.5731969,16.3725146 13.5499025,16.3769981 C13.370078,16.4112086 13.1901559,16.3754386 13.0390838,16.2892788 L12.7536062,16.0038012 C12.7254386,15.9539961 12.7020468,15.9009747 12.6856725,15.8442495 Z M7.26773879,13.6882066 C7.32475634,13.6311891 7.3997076,13.602729 7.4745614,13.602729 C7.5494152,13.602729 7.62436647,13.6311891 7.68128655,13.6882066 L11.2341131,17.2410331 C11.3989279,17.4660819 11.5954191,17.6622807 11.8167641,17.8236842 L14.8846004,20.8915205 C14.9986355,21.0054581 14.9986355,21.1910331 14.8846004,21.3049708 L12.9594542,23.230117 L10.8184211,21.0890838 L11.2262183,20.6812865 C11.6068226,20.3006823 11.6068226,19.6835283 11.2262183,19.3028265 L9.03226121,17.1088694 C8.65155945,16.7283626 8.03460039,16.7283626 7.65380117,17.1088694 L7.2460039,17.5166667 L5.34259259,15.6132554 L7.26773879,13.6882066 Z M8.60185185,20.5489279 C8.508577,20.6422027 8.3997076,20.6562378 8.34307992,20.6562378 C8.28654971,20.6562378 8.17768031,20.6422027 8.08440546,20.5490253 L8.08440546,20.5489279 L7.78625731,20.2508772 C7.69307992,20.1576023 7.67904483,20.0487329 7.67904483,19.9922027 C7.67904483,19.935575 7.69307992,19.8267057 7.78635478,19.7334308 L8.34307992,19.1767057 L9.158577,19.9922027 L8.60185185,20.5489279 Z M9.65584795,26.5338207 C9.58499025,26.6045809 9.50438596,26.6193957 9.44912281,26.6193957 C9.39395712,26.6193957 9.31315789,26.6045809 9.24239766,26.5337232 L2.03918129,19.3305068 C1.96832359,19.2596491 1.95350877,19.1789474 1.95350877,19.1237817 C1.95350877,19.0685185 1.96832359,18.9878168 2.03918129,18.9170565 L3.96423002,16.9919103 L5.95877193,18.9863548 C5.80916179,19.2961014 5.7297271,19.6380117 5.7297271,19.9922027 C5.7297271,20.6107212 5.97066277,21.1921053 6.40789474,21.6293372 L6.70594542,21.9272904 L6.70594542,21.9273879 C7.14317739,22.3646199 7.72465887,22.6055556 8.34307992,22.6055556 C8.69727096,22.6055556 9.03918129,22.5262183 9.34892788,22.3765107 L11.5810916,24.6086745 L9.65584795,26.5338207 Z M23.5780702,18.9341131 L18.0650097,18.9341131 L20.0672515,11.2369396 C20.4253411,9.86072125 21.6685185,8.89961014 23.0905458,8.89961014 C23.9690058,8.89961014 24.7815789,9.25380117 25.3785575,9.89697856 C27.2097466,11.870078 30.1131579,12.428655 32.4385965,11.2554581 C33.0192982,10.9625731 33.5682261,10.6028265 34.0699805,10.1858674 L34.3338207,9.96666667 C34.492885,9.83450292 34.6935673,9.77387914 34.8992203,9.79707602 C35.104386,9.81968811 35.287232,9.92261209 35.4141326,10.087037 C35.6590643,10.4040936 35.5926901,10.8826511 35.2663743,11.1537037 L35.0342105,11.3465887 C33.2151072,12.8576998 30.9133528,13.6898635 28.552924,13.6898635 C28.0403509,13.6898635 27.5164717,13.6488304 26.9957115,13.5678363 C26.5308967,13.4949318 26.0812865,13.7651072 25.9259259,14.2088694 L24.2717349,18.9341131 L23.5780702,18.9341131 Z" id="XMLID_1911_"></path>
                            <path d="M24.0736842,39.8440546 C23.8173489,39.8440546 23.5658869,39.9482456 23.3846004,40.1296296 C23.2033138,40.3108187 23.0990253,40.5622807 23.0990253,40.8187135 C23.0990253,41.0760234 23.2032164,41.3265107 23.3846004,41.5076998 C23.5658869,41.689961 23.8173489,41.7933723 24.0736842,41.7933723 C24.3300195,41.7933723 24.5814815,41.689961 24.7626706,41.5076998 C24.9439571,41.3265107 25.0483431,41.0759259 25.0483431,40.8187135 C25.0483431,40.5622807 24.9440546,40.3108187 24.7626706,40.1296296 C24.5814815,39.9482456 24.3300195,39.8440546 24.0736842,39.8440546 Z" id="XMLID_1920_"></path>
                            <path d="M11.977193,33.5419103 C12.2335283,33.5419103 12.4849903,33.4376218 12.6662768,33.2562378 C12.8474659,33.0750487 12.9518519,32.8235867 12.9518519,32.5672515 C12.9518519,32.3109162 12.8475634,32.0594542 12.6662768,31.8781676 C12.4840156,31.6968811 12.2335283,31.5925926 11.977193,31.5925926 C11.7208577,31.5925926 11.4693957,31.6967836 11.2871345,31.8781676 C11.1059454,32.0594542 11.0025341,32.3109162 11.0025341,32.5672515 C11.0025341,32.8235867 11.1059454,33.0750487 11.2871345,33.2562378 C11.4693957,33.4375244 11.719883,33.5419103 11.977193,33.5419103 Z" id="XMLID_1921_"></path>
                        </g>
                        <rect id="Rectangle" fill="#CA1836" x="50" y="0" width="20" height="1" rx="0.5"></rect>
                        <rect id="Rectangle" fill="#CA1836" transform="translate(0.500000, 60.000000) rotate(90.000000) translate(-0.500000, -60.000000) " x="-9.5" y="59.5" width="20" height="1" rx="0.5"></rect>
                        <rect id="Rectangle" fill="#CA1836" transform="translate(10.500000, 69.500000) rotate(90.000000) translate(-10.500000, -69.500000) " x="10" y="59.5" width="1" height="20" rx="0.5"></rect>
                        <rect id="Rectangle" fill="#CA1836" x="69" y="0" width="1" height="20" rx="0.5"></rect>
                    </g>
                </g>
            </g>
        </g>
    </g>
</svg>