<?xml version="1.0" encoding="UTF-8"?>
<svg width="70px" height="70px" viewBox="0 0 70 70" version="1.1" xmlns="http://www.w3.org/2000/svg" xmlns:xlink="http://www.w3.org/1999/xlink">
    <!-- Generator: Sketch 56.2 (81672) - https://sketch.com -->
    <title>report</title>
    <desc>Created with Sketch.</desc>
    <g id="pages" stroke="none" stroke-width="1" fill="none" fill-rule="evenodd">
        <g id="aventin-career" transform="translate(-573.000000, -593.000000)">
            <g id="values" transform="translate(180.000000, 524.000000)">
                <g id="4" transform="translate(393.000000, 69.000000)">
                    <g id="report">
                        <g transform="translate(10.000000, 10.000000)" fill="#2D42AB" fill-rule="nonzero">
                            <path d="M49.7139648,9.27041016 L40.7295898,0.286035156 C40.5464844,0.102929688 40.2980469,0 40.0390625,0 L12.6953125,0 C11.0798828,0 9.765625,1.31425781 9.765625,2.9296875 L9.765625,14.0474609 C9.765625,14.5868164 10.202832,15.0240234 10.7421875,15.0240234 C11.281543,15.0240234 11.71875,14.5868164 11.71875,14.0474609 L11.71875,2.9296875 C11.71875,2.39121094 12.1568359,1.953125 12.6953125,1.953125 L39.1601562,1.953125 L39.1601562,7.92255859 C39.1601562,9.53798828 40.4744141,10.8522461 42.0898438,10.8522461 L48.046875,10.8522461 L48.046875,47.0703125 C48.046875,47.6087891 47.6087891,48.046875 47.0703125,48.046875 L25,48.046875 L25,42.3744141 C25,40.1058594 23.3915039,38.1076172 21.175293,37.6230469 L16.3774414,36.5739258 C16.3585938,36.5698242 16.3404297,36.5640625 16.3229492,36.5569336 C17.6838867,35.4457031 18.5546875,33.7558594 18.5546875,31.865918 L18.5546875,27.6365234 C19.0458008,26.9566406 19.3364258,26.1227539 19.3364258,25.2217773 L19.3364258,21.8598633 C19.3364258,21.3205078 18.8992187,20.8833008 18.3598633,20.8833008 L11.5854492,20.8833008 C8.75117187,20.8833984 6.4453125,23.1892578 6.4453125,26.0235352 L6.4453125,31.865918 C6.4453125,33.7508789 7.31142578,35.4371094 8.66630859,36.5484375 C8.64326172,36.5595703 8.61933594,36.569043 8.59355469,36.574707 L3.82148437,37.621582 C1.60722656,38.1072266 0,40.1051758 0,42.372168 L0,49.0234375 C0,49.562793 0.437207031,50 0.9765625,50 L47.0703125,50 C48.6857422,50 50,48.6857422 50,47.0703125 L50,9.9609375 C50,9.70195312 49.8970703,9.45351562 49.7139648,9.27041016 Z M8.3984375,26.0235352 C8.3984375,24.2662109 9.828125,22.8365234 11.5854492,22.8365234 L17.3833008,22.8365234 L17.3833008,25.221875 C17.3833008,26.4243164 16.4049805,27.4026367 15.2025391,27.4026367 L8.3984375,27.4026367 L8.3984375,26.0235352 Z M8.3984375,29.3556641 L15.2025391,29.3556641 C15.6933594,29.3556641 16.1643555,29.2692383 16.6015625,29.1115234 L16.6015625,31.865918 C16.6015625,34.1275391 14.7616211,35.9674805 12.5,35.9674805 C10.2383789,35.9674805 8.3984375,34.1275391 8.3984375,31.865918 L8.3984375,29.3556641 Z M12.5,37.9206055 C13.2290039,37.9206055 13.9283203,37.7910156 14.5762695,37.5538086 C14.8217773,37.9041016 15.1625,38.1858398 15.5650391,38.3557617 L13.4765625,43.7543945 L13.4765625,40.8670898 C13.4765625,40.3277344 13.0393555,39.8905273 12.5,39.8905273 C11.9606445,39.8905273 11.5234375,40.3277344 11.5234375,40.8670898 L11.5234375,43.8299805 L9.40605469,38.3563477 C9.81201172,38.1848633 10.1553711,37.899707 10.4012695,37.5450195 C11.0554687,37.7875977 11.7624023,37.9206055 12.5,37.9206055 Z M1.953125,42.372168 C1.953125,41.0155273 2.91494141,39.8199219 4.23994141,39.5292969 L7.48974609,38.8164062 L11.0604492,48.046875 L1.953125,48.046875 L1.953125,42.372168 Z M13.9102539,48.046875 L17.4816406,38.8146484 L20.7581055,39.5310547 C22.0842773,39.8209961 23.046875,41.0167969 23.046875,42.3744141 L23.046875,48.046875 L13.9102539,48.046875 Z M41.1132812,7.92255859 L41.1132812,3.43183594 L46.5805664,8.89912109 L42.0898438,8.89912109 C41.5513672,8.89912109 41.1132812,8.46103516 41.1132812,7.92255859 Z" id="XMLID_905_"></path>
                            <path d="M28.90625,32.9129883 C28.3668945,32.9129883 27.9296875,33.3501953 27.9296875,33.8895508 L27.9296875,43.7512695 C27.9296875,44.290625 28.3668945,44.727832 28.90625,44.727832 L34.375,44.727832 C34.9143555,44.727832 35.3515625,44.290625 35.3515625,43.7512695 L35.3515625,33.8895508 C35.3515625,33.3501953 34.9143555,32.9129883 34.375,32.9129883 L28.90625,32.9129883 Z M33.3984375,42.774707 L29.8828125,42.774707 L29.8828125,34.8661133 L33.3984375,34.8661133 L33.3984375,42.774707 Z" id="XMLID_957_"></path>
                            <path d="M37.3046875,30.1052734 L37.3046875,43.7512695 C37.3046875,44.290625 37.7418945,44.727832 38.28125,44.727832 L43.75,44.727832 C44.2893555,44.727832 44.7265625,44.290625 44.7265625,43.7512695 L44.7265625,30.1052734 C44.7265625,29.565918 44.2893555,29.1287109 43.75,29.1287109 L38.28125,29.1287109 C37.7418945,29.1287109 37.3046875,29.565918 37.3046875,30.1052734 Z M39.2578125,31.0818359 L42.7734375,31.0818359 L42.7734375,42.774707 L39.2578125,42.774707 L39.2578125,31.0818359 Z" id="XMLID_985_"></path>
                            <path d="M28.0266602,18.6511719 L40.5554688,18.6511719 C41.0948242,18.6511719 41.5320313,18.2139648 41.5320313,17.6746094 C41.5320313,17.1352539 41.0948242,16.6980469 40.5554688,16.6980469 L28.0266602,16.6980469 C27.4873047,16.6980469 27.0500977,17.1352539 27.0500977,17.6746094 C27.0500977,18.2139648 27.4873047,18.6511719 28.0266602,18.6511719 Z" id="XMLID_1759_"></path>
                            <path d="M28.109375,10.8525391 C28.3662109,10.8525391 28.6181641,10.7480469 28.7998047,10.5664062 C28.9814453,10.3847656 29.0859375,10.1328125 29.0859375,9.87597656 C29.0859375,9.61816406 28.9814453,9.3671875 28.7998047,9.18554688 C28.6181641,9.00292969 28.3662109,8.89941406 28.109375,8.89941406 C27.8525391,8.89941406 27.6005859,9.00292969 27.4189453,9.18554688 C27.2373047,9.3671875 27.1328125,9.61816406 27.1328125,9.87597656 C27.1328125,10.1328125 27.2373047,10.3847656 27.4189453,10.5664062 C27.6005859,10.7480469 27.8525391,10.8525391 28.109375,10.8525391 Z" id="XMLID_4158_"></path>
                            <path d="M36.3178711,10.8522461 C36.8572266,10.8522461 37.2944336,10.4150391 37.2944336,9.87568359 C37.2944336,9.33632812 36.8572266,8.89912109 36.3178711,8.89912109 L32.0800781,8.89912109 C31.5407227,8.89912109 31.1035156,9.33632812 31.1035156,9.87568359 C31.1035156,10.4150391 31.5407227,10.8522461 32.0800781,10.8522461 L36.3178711,10.8522461 Z" id="XMLID_4159_"></path>
                            <path d="M19.2100586,10.8522461 L23.1163086,10.8522461 C23.6556641,10.8522461 24.0928711,10.4150391 24.0928711,9.87568359 L24.0928711,5.96943359 C24.0928711,5.43007813 23.6556641,4.99287109 23.1163086,4.99287109 L19.2100586,4.99287109 C18.6707031,4.99287109 18.2334961,5.43007813 18.2334961,5.96943359 L18.2334961,9.87568359 C18.2334961,10.4150391 18.6707031,10.8522461 19.2100586,10.8522461 Z M20.1866211,6.94599609 L22.1397461,6.94599609 L22.1397461,8.89912109 L20.1866211,8.89912109 L20.1866211,6.94599609 Z" id="XMLID_4162_"></path>
                            <path d="M18.2334961,17.6823242 C18.2334961,18.2216797 18.6707031,18.6588867 19.2100586,18.6588867 L23.1163086,18.6588867 C23.6556641,18.6588867 24.0928711,18.2216797 24.0928711,17.6823242 L24.0928711,13.7760742 C24.0928711,13.2367188 23.6556641,12.7995117 23.1163086,12.7995117 L19.2100586,12.7995117 C18.6707031,12.7995117 18.2334961,13.2367188 18.2334961,13.7760742 L18.2334961,17.6823242 Z M20.1866211,14.7526367 L22.1397461,14.7526367 L22.1397461,16.7057617 L20.1866211,16.7057617 L20.1866211,14.7526367 Z" id="XMLID_4165_"></path>
                            <path d="M22.2695312,30.5996094 C22.0126953,30.5996094 21.7607422,30.7041016 21.5791016,30.8857422 C21.3974609,31.0673828 21.2929688,31.3193359 21.2929688,31.5771484 C21.2929688,31.8339844 21.3974609,32.0859375 21.5791016,32.2675781 C21.7607422,32.4492188 22.0126953,32.5527344 22.2695312,32.5527344 C22.5273438,32.5527344 22.7783203,32.4492188 22.9599609,32.2675781 C23.1416016,32.0859375 23.2460938,31.8339844 23.2460938,31.5771484 C23.2460938,31.3193359 23.1416016,31.0673828 22.9599609,30.8857422 C22.7783203,30.7041016 22.5263672,30.5996094 22.2695312,30.5996094 Z" id="XMLID_4166_"></path>
                            <path d="M24.9571289,30.4098633 C25.1168945,30.7780273 25.4761719,30.9978516 25.853418,30.9978516 C25.9832031,30.9978516 26.1152344,30.9717773 26.2417969,30.9167969 L39.584082,25.1246094 C39.5510742,25.4844727 39.71875,25.8487305 40.0484375,26.0491211 C40.2069336,26.1454102 40.3819336,26.1913086 40.5546875,26.1913086 C40.8844727,26.1913086 41.2063477,26.0242187 41.3901367,25.7217773 L42.9038086,23.2310547 C43.0870117,22.9295898 43.0933594,22.5526367 42.9204102,22.2451172 C42.7474609,21.9375977 42.4220703,21.7472656 42.0692383,21.7472656 L39.0418945,21.7472656 C38.5025391,21.7472656 38.065332,22.1844727 38.065332,22.7238281 C38.065332,23.0359375 38.2123047,23.3132812 38.4402344,23.4919922 L25.4640625,29.1251953 C24.9693359,29.3399414 24.7423828,29.9151367 24.9571289,30.4098633 Z" id="XMLID_4167_"></path>
                            <path d="M11.4326172,18.6445312 C11.6142578,18.4619141 11.71875,18.2109375 11.71875,17.9541016 C11.71875,17.6962891 11.6142578,17.4453125 11.4326172,17.2626953 C11.2509766,17.0810547 10.9990234,16.9775391 10.7421875,16.9775391 C10.4853516,16.9775391 10.2333984,17.0810547 10.0517578,17.2626953 C9.87011719,17.4453125 9.765625,17.6962891 9.765625,17.9541016 C9.765625,18.2109375 9.87011719,18.4628906 10.0517578,18.6445312 C10.2333984,18.8261719 10.4853516,18.9306641 10.7421875,18.9306641 C10.9990234,18.9306641 11.2509766,18.8261719 11.4326172,18.6445312 Z" id="XMLID_4168_"></path>
                        </g>
                        <rect id="Rectangle" fill="#CA1836" x="50" y="0" width="20" height="1" rx="0.5"></rect>
                        <rect id="Rectangle" fill="#CA1836" transform="translate(0.500000, 60.000000) rotate(90.000000) translate(-0.500000, -60.000000) " x="-9.5" y="59.5" width="20" height="1" rx="0.5"></rect>
                        <rect id="Rectangle" fill="#CA1836" transform="translate(10.500000, 69.500000) rotate(90.000000) translate(-10.500000, -69.500000) " x="10" y="59.5" width="1" height="20" rx="0.5"></rect>
                        <rect id="Rectangle" fill="#CA1836" x="69" y="0" width="1" height="20" rx="0.5"></rect>
                    </g>
                </g>
            </g>
        </g>
    </g>
</svg>