<?xml version="1.0" encoding="UTF-8"?>
<svg width="70px" height="70px" viewBox="0 0 70 70" version="1.1" xmlns="http://www.w3.org/2000/svg" xmlns:xlink="http://www.w3.org/1999/xlink">
    <!-- Generator: Sketch 56.2 (81672) - https://sketch.com -->
    <title>shield</title>
    <desc>Created with Sketch.</desc>
    <g id="pages" stroke="none" stroke-width="1" fill="none" fill-rule="evenodd">
        <g id="aventin-main" transform="translate(-1030.000000, -1125.000000)">
            <g id="advantages" transform="translate(180.000000, 970.000000)">
                <g id="4" transform="translate(850.000000, 155.000000)">
                    <g id="shield">
                        <g transform="translate(10.000000, 11.000000)" fill="#2D42AB" fill-rule="nonzero">
                            <path d="M24.1561932,17.4533874 C24.4819684,17.7627595 25.0236556,17.7001984 25.2712294,17.3267395 L30.1460319,9.96971308 C30.3695732,9.63249378 30.2772575,9.17778179 29.9400383,8.95424044 C29.6032004,8.73108064 29.1484884,8.82339628 28.9249471,9.16023413 L24.5319409,15.7901791 L22.0909158,13.4723687 C21.7975655,13.1938958 21.3340797,13.2061028 21.0552253,13.4994531 C20.7767523,13.7928033 20.7889593,14.2562891 21.0823096,14.5347621 C21.0819281,14.5347621 24.1535229,17.4510987 24.1561932,17.4533874 L24.1561932,17.4533874 Z" id="Path"></path>
                            <path d="M24.6559186,28.6247304 C24.795918,28.6888173 24.9507948,28.7227681 25.1049086,28.7227681 L25.1110121,28.7227681 C25.2677962,28.7220051 25.4249617,28.686147 25.5653426,28.6190084 C36.7027348,23.3223002 38.5902472,11.8942282 38.9030525,8.517839 C38.9747688,7.74688857 38.5406562,7.02896237 37.8231115,6.73141603 C35.6060091,5.81092934 34.0988219,3.75251834 33.8897765,1.35955834 C33.8253081,0.622940149 33.1958829,0.0488281336 32.4543056,0.0488281336 L32.4455319,0.0488281336 L17.440799,0.13694768 C16.6843443,0.141143775 16.0697966,0.716018778 16.0118132,1.47399928 C15.8271817,3.86772226 14.3421198,5.94101061 12.1360801,6.88476684 C11.4257833,7.18841679 11.0023517,7.91015764 11.0832234,8.68072662 C11.4357014,12.053301 13.4571099,23.4588664 24.6559186,28.6247304 L24.6559186,28.6247304 Z M12.7120994,8.23135516 C15.4171017,7.07473874 17.2393829,4.53529435 17.4709351,1.60141024 L32.4325619,1.51367214 C32.6984463,4.44107129 34.5466674,6.95724614 37.261588,8.08410787 C37.3828953,8.13484332 37.4565191,8.25462489 37.4446935,8.38279874 C37.1509617,11.5470907 35.3935304,22.2164193 25.1022383,27.2163438 C14.7518184,22.3381082 12.8707908,11.6893789 12.5396751,8.52852015 C12.5263236,8.40072784 12.5957511,8.28132773 12.7120994,8.23135516 Z" id="Shape"></path>
                            <path d="M14.5408656,12.2917197 C14.6293666,12.6174949 15.0424983,12.9158042 15.4399899,12.8063225 C15.829852,12.6987479 16.0606413,12.2978233 15.9545926,11.9075796 C15.7680539,11.220171 15.6112698,10.5232257 15.4880551,9.8327654 C17.4778015,8.53614955 18.9544711,6.60095331 19.6788823,4.34074481 L30.2562767,4.27856521 C31.0070093,6.52961843 32.5061855,8.44803 34.5111907,9.72099478 C34.3963684,10.4133624 34.2475951,11.1125966 34.0686858,11.8026754 C33.9672149,12.1944449 34.2025817,12.5942253 34.5939698,12.6956962 C34.9861206,12.7971672 35.3855195,12.5618003 35.4869905,12.1700309 C35.6967989,11.359789 35.8676973,10.5373401 35.9943453,9.72557241 C36.0652987,9.27200475 35.8577792,8.82606659 35.4663911,8.58955532 C33.598715,7.46154916 32.2181758,5.69191077 31.5792139,3.60679692 C31.4353999,3.13797047 30.9932763,2.81219532 30.5027061,2.81219532 L30.4958397,2.81219532 L19.4217716,2.87704523 C18.9281497,2.88009699 18.4864076,3.21235711 18.3479341,3.68461676 C17.7337678,5.77697855 16.373828,7.56263863 14.5195033,8.71277009 C14.1307856,8.95347755 13.928988,9.40170458 14.0049005,9.8548906 C14.1414667,10.664751 14.3215205,11.4845296 14.5408656,12.2917197 Z" id="Path"></path>
                            <path d="M34.0065062,14.4634272 C33.6326659,14.3085505 33.2046567,14.4870783 33.0501615,14.8609187 C31.3575799,18.9632449 28.6781361,22.082142 25.0839277,24.1348309 C21.461872,22.1218148 18.7435183,19.0292392 17.0032531,14.939883 C16.8445617,14.5679499 16.4142637,14.3947627 16.0423307,14.5530727 C15.6700162,14.7113826 15.4968289,15.1416805 15.6551389,15.5136136 C17.5544769,19.9760473 20.5467261,23.3402293 24.5487256,25.5119369 C24.7173353,25.6038711 24.9019667,25.649266 25.0862165,25.649266 C25.2750441,25.649266 25.4634902,25.6015822 25.6351516,25.5058334 C29.6070151,23.2898753 32.5573025,19.89632 34.4043792,15.4193905 C34.5588744,15.0455501 34.3807281,14.617541 34.0065062,14.4634272 Z" id="Path"></path>
                            <path d="M4.69932641,37.5267095 C3.27072206,37.5267095 2.10800213,38.6890479 2.10800213,40.1180338 C2.10800213,41.5470196 3.27072206,42.7093581 4.69932641,42.7093581 C6.12831221,42.7093581 7.29103214,41.5470196 7.29103214,40.1180338 C7.29103214,38.6890479 6.12869366,37.5267095 4.69932641,37.5267095 L4.69932641,37.5267095 Z M4.69932641,41.2445141 C4.07829359,41.2445141 3.57284614,40.7394481 3.57284614,40.1180338 C3.57284614,39.497001 4.07829359,38.9915535 4.69932641,38.9915535 C5.32074068,38.9915535 5.82618813,39.497001 5.82618813,40.1180338 C5.82618813,40.7394481 5.32074068,41.2445141 4.69932641,41.2445141 Z" id="Shape"></path>
                            <path d="M49.4747249,30.3562217 C48.5359277,28.976827 46.6457449,28.611379 45.261391,29.5414023 L35.6864992,35.9497134 L33.642584,35.834891 L33.5903227,35.3115144 C33.3866178,33.2618771 31.8199214,31.628805 29.7805838,31.3404138 C29.7676138,31.3385065 29.7550253,31.3369806 29.7420554,31.3358362 L19.4248233,30.4317528 C19.0757785,30.3772026 17.9584534,30.0563865 14.8883846,28.295522 C13.2926965,27.3803759 11.4948293,26.8638659 9.66835189,26.7936754 L9.66835189,24.8775526 C9.66835189,23.9158673 8.88633887,23.1338542 7.92465354,23.1338542 L1.74369845,23.1338542 C0.782394571,23.1338542 1.42108547e-13,23.9162487 1.42108547e-13,24.8775526 L1.42108547e-13,43.7492448 C1.42108547e-13,44.7105487 0.782394571,45.4929432 1.74369845,45.4929432 L7.92465354,45.4929432 C8.88595742,45.4929432 9.66835189,44.7105487 9.66835189,43.7492448 L9.66835189,43.2293014 L18.6870608,46.6446005 C18.7068972,46.6522299 19.4393192,46.9261252 20.7859076,46.7990957 C20.7897223,46.7987143 35.7711855,44.6388323 35.7711855,44.6388323 C35.7750002,44.6384508 35.7784334,44.6376879 35.7822481,44.6369249 C37.0624607,44.4328387 38.2698126,43.891533 39.2742226,43.0725173 C39.2833779,43.0648879 39.2921516,43.0572585 39.3009255,43.0496291 L48.9791956,34.3448699 C50.1197903,33.3320676 50.3330319,31.6173609 49.4747249,30.3562217 L49.4747249,30.3562217 Z M48.0030144,33.2527219 L38.3350439,41.9483258 C37.5347204,42.5972059 36.5741794,43.0263595 35.556418,43.1896286 L20.5822027,45.3483662 C20.5787694,45.3487476 20.5738104,45.3495105 20.5692327,45.3502735 C20.5669439,45.3506549 20.5642736,45.3510364 20.5619849,45.3514179 C20.1141393,45.4219898 19.6476017,45.3922351 19.1749606,45.2629169 L9.66835189,41.6629864 L9.66835189,33.2984982 C9.66835189,32.8937588 9.34028787,32.5660762 8.93592989,32.5660762 C8.53119046,32.5660762 8.20350789,32.8937588 8.20350789,33.2984982 L8.20350789,43.7492448 C8.20350789,43.9029771 8.0783858,44.0280991 7.92465354,44.0280991 L1.74369845,44.0280991 C1.5899661,44.0280991 1.46484401,43.9029771 1.46484401,43.7492448 L1.46484401,24.8775526 C1.46484401,24.7238203 1.5899661,24.5986982 1.74369845,24.5986982 L7.92465354,24.5986982 C8.0783858,24.5986982 8.20350789,24.7238203 8.20350789,24.8775526 L8.20350789,29.9900107 C8.20350789,30.3947503 8.53157191,30.7224327 8.93592989,30.7224327 C9.34066942,30.7224327 9.66835189,30.3943687 9.66835189,29.9900107 L9.66835189,28.2600452 C11.239626,28.3294728 12.7853416,28.7780812 14.1593958,29.5665793 C17.8623231,31.6902216 18.8964877,31.836706 19.2363773,31.8847712 C19.2493472,31.8866786 19.2619358,31.887823 19.2749057,31.8893489 L29.5932822,32.7934323 C30.9536035,32.9944668 31.9965419,34.0869963 32.1327265,35.4564729 L32.1716365,35.8467165 L18.3574709,36.699683 C18.3479341,36.69892 18.3383974,36.698157 18.3300051,36.6973941 C17.8821595,36.6569584 17.4778015,36.4452426 17.1905548,36.1011568 C16.9315368,35.790259 16.4695769,35.7482973 16.1590605,36.0076968 C15.8481626,36.2667148 15.8062009,36.7286746 16.0656004,37.0391911 C16.6030913,37.683875 17.3614532,38.069541 18.1995424,38.1565161 C18.6519656,38.2038183 32.9773007,37.2646398 32.9773007,37.2646398 L35.8490053,37.4260015 C36.0076968,37.4351568 36.1652438,37.3916692 36.2972324,37.3031682 L46.0773549,30.7579095 C46.7956625,30.2753501 47.7764214,30.4645592 48.2635583,31.1801965 C48.7087336,31.8347987 48.5981073,32.7243862 48.0030144,33.2527219 Z" id="Shape"></path>
                        </g>
                        <rect id="Rectangle" fill="#CA1836" x="50" y="0" width="20" height="1" rx="0.5"></rect>
                        <rect id="Rectangle" fill="#CA1836" transform="translate(0.500000, 60.000000) rotate(90.000000) translate(-0.500000, -60.000000) " x="-9.5" y="59.5" width="20" height="1" rx="0.5"></rect>
                        <rect id="Rectangle" fill="#CA1836" transform="translate(10.500000, 69.500000) rotate(90.000000) translate(-10.500000, -69.500000) " x="10" y="59.5" width="1" height="20" rx="0.5"></rect>
                        <rect id="Rectangle" fill="#CA1836" x="69" y="0" width="1" height="20" rx="0.5"></rect>
                    </g>
                </g>
            </g>
        </g>
    </g>
</svg>