<?xml version="1.0" encoding="UTF-8"?>
<svg width="15px" height="15px" viewBox="0 0 15 15" version="1.1" xmlns="http://www.w3.org/2000/svg" xmlns:xlink="http://www.w3.org/1999/xlink">
    <!-- Generator: Sketch 56.2 (81672) - https://sketch.com -->
    <title>telephone</title>
    <desc>Created with Sketch.</desc>
    <g id="pages" stroke="none" stroke-width="1" fill="none" fill-rule="evenodd">
        <g id="aventin-main" transform="translate(-793.000000, -33.000000)" fill="#2D42AB" fill-rule="nonzero">
            <g id="main">
                <g id="header">
                    <g id="phone" transform="translate(793.000000, 32.000000)">
                        <g id="telephone" transform="translate(0.000000, 1.000000)">
                            <path d="M11.3935759,9.91372141 C10.9039709,9.43035343 10.2927443,9.43035343 9.8062578,9.91372141 C9.43515593,10.2817048 9.06405405,10.6496881 8.69918919,11.0239085 C8.59939709,11.1268191 8.51519751,11.1486486 8.39357588,11.0800416 C8.15345114,10.9490644 7.89773389,10.8430353 7.66696466,10.6995842 C6.59108108,10.022869 5.68983368,9.15280665 4.89149688,8.17359667 C4.49544699,7.68711019 4.14305613,7.16632017 3.89669439,6.58004158 C3.84679834,6.46153846 3.85615385,6.38357588 3.95282744,6.28690229 C4.32392931,5.92827443 4.68567568,5.56029106 5.05054054,5.19230769 C5.55885655,4.68087318 5.55885655,4.08212058 5.04742204,3.56756757 C4.75740125,3.27442827 4.46738046,2.98752599 4.17735967,2.69438669 C3.87798337,2.3950104 3.58172557,2.09251559 3.27923077,1.7962578 C2.78962578,1.31912682 2.17839917,1.31912682 1.69191268,1.7993763 C1.31769231,2.16735967 0.959064449,2.54469854 0.578607069,2.90644491 C0.226216216,3.24012474 0.0484615385,3.64864865 0.011039501,4.12577963 C-0.0482120582,4.9022869 0.142016632,5.63513514 0.4102079,6.34927235 C0.959064449,7.82744283 1.79482328,9.14033264 2.8083368,10.3440748 C4.17735967,11.9719335 5.8114553,13.2598753 7.72309771,14.1891892 C8.58380457,14.6070686 9.47569647,14.9282744 10.4455509,14.981289 C11.1129106,15.018711 11.6929522,14.8503119 12.1576091,14.3295218 C12.4756965,13.9740125 12.8343243,13.6496881 13.1711227,13.3097713 C13.6700832,12.8045738 13.6732017,12.1933472 13.1773597,11.6943867 C12.5848441,11.0987526 11.98921,10.506237 11.3935759,9.91372141 Z" id="Path"></path>
                            <path d="M10.7979418,7.42827443 L11.9486694,7.23180873 C11.7677963,6.17463617 11.2688358,5.21725572 10.5110395,4.45634096 C9.7095842,3.65488565 8.69607069,3.14968815 7.57964657,2.99376299 L7.41748441,4.15072765 C8.28130977,4.27234927 9.06717256,4.66216216 9.68775468,5.28274428 C10.2740333,5.86902287 10.6576091,6.61122661 10.7979418,7.42827443 Z" id="Path"></path>
                            <path d="M12.5973181,2.42619543 C11.2688358,1.0977131 9.58796258,0.258835759 7.73245322,0 L7.57029106,1.15696466 C9.17320166,1.38149688 10.6264241,2.10810811 11.7740333,3.25259875 C12.8623909,4.34095634 13.5765281,5.71621622 13.8353638,7.22869023 L14.9860915,7.03222453 C14.6835967,5.27962578 13.8571933,3.68918919 12.5973181,2.42619543 Z" id="Path"></path>
                        </g>
                    </g>
                </g>
            </g>
        </g>
    </g>
</svg>