<?xml version="1.0" encoding="UTF-8"?>
<svg width="20px" height="18px" viewBox="0 0 20 18" version="1.1" xmlns="http://www.w3.org/2000/svg" xmlns:xlink="http://www.w3.org/1999/xlink">
    <!-- Generator: Sketch 56.2 (81672) - https://sketch.com -->
    <title>upload</title>
    <desc>Created with Sketch.</desc>
    <g id="pages" stroke="none" stroke-width="1" fill="none" fill-rule="evenodd">
        <g id="aventin-vacancy" transform="translate(-906.000000, -967.000000)" fill="#B4B5B6" fill-rule="nonzero">
            <g id="form" transform="translate(180.000000, 866.000000)">
                <g id="3" transform="translate(550.000000, 80.000000)">
                    <g id="Group-2" transform="translate(176.000000, 20.000000)">
                        <g id="upload" transform="translate(0.000000, 1.000000)">
                            <path d="M18.9829493,8.82485132 C18.6718894,8.82485132 18.4230415,9.07083386 18.4230415,9.37831203 L18.4230415,14.4127547 C18.4230415,15.7820574 17.2949309,16.8930786 15.9138249,16.8930786 L3.62903226,16.8930786 C2.2437788,16.8930786 1.11981567,15.7779577 1.11981567,14.4127547 L1.11981567,9.29631785 C1.11981567,8.98883968 0.870967742,8.74285714 0.559907834,8.74285714 C0.248847926,8.74285714 0,8.98883968 0,9.29631785 L0,14.4127547 C0,16.3929141 1.62995392,18 3.62903226,18 L15.9138249,18 C17.9170507,18 19.5428571,16.3888144 19.5428571,14.4127547 L19.5428571,9.37831203 C19.5428571,9.07493357 19.2940092,8.82485132 18.9829493,8.82485132 Z" id="Path"></path>
                            <path d="M6.60930316,4.53419576 L9.21194373,1.91943457 L9.21194373,13.3236239 C9.21194373,13.6358963 9.46060366,13.8857143 9.77142857,13.8857143 C10.0822535,13.8857143 10.3309134,13.6358963 10.3309134,13.3236239 L10.3309134,1.91943457 L12.933554,4.53419576 C13.0413066,4.6424502 13.1863582,4.70074106 13.3272655,4.70074106 C13.4723172,4.70074106 13.6132244,4.64661384 13.7209771,4.53419576 C13.9406267,4.31352324 13.9406267,3.95961448 13.7209771,3.73894196 L10.1651401,0.166545299 C10.0615318,0.062454487 9.9164802,0 9.77142857,0 C9.62223262,0 9.48132532,0.0582908546 9.37771702,0.166545299 L5.82188006,3.73894196 C5.60223046,3.95961448 5.60223046,4.31352324 5.82188006,4.53419576 C6.03738533,4.75070465 6.39379789,4.75070465 6.60930316,4.53419576 Z" id="Path"></path>
                        </g>
                    </g>
                </g>
            </g>
        </g>
    </g>
</svg>